<svg id="svg" version="1.1" xmlns="http://www.w3.org/2000/svg" xmlns:xlink="http://www.w3.org/1999/xlink" width="400" height="400" viewBox="0, 0, 400,400"><g id="svgg"><path id="path0" d="M193.000 48.030 C 185.905 48.372,179.176 49.247,175.000 50.369 C 169.861 51.751,168.441 52.210,166.104 53.247 C 165.172 53.661,164.235 54.000,164.022 54.000 C 163.809 54.000,162.772 54.497,161.718 55.104 C 160.663 55.711,159.341 56.443,158.780 56.729 C 156.839 57.719,152.190 61.391,149.743 63.865 C 144.349 69.319,140.250 75.837,137.146 83.900 C 136.956 84.395,136.632 85.205,136.426 85.700 C 136.220 86.195,135.661 87.950,135.184 89.600 C 134.707 91.250,134.164 93.050,133.978 93.600 C 133.339 95.485,131.533 104.599,131.164 107.800 C 130.962 109.560,130.707 111.450,130.598 112.000 C 129.252 118.791,128.793 135.846,129.974 135.214 C 132.185 134.031,132.764 134.418,138.778 141.105 C 142.419 145.153,142.258 145.324,142.989 136.659 C 143.718 128.033,142.609 129.799,152.400 121.669 L 160.600 114.861 181.600 114.704 C 205.008 114.530,204.643 114.569,210.400 111.658 C 217.789 107.922,227.334 99.046,235.965 87.885 L 237.136 86.370 238.127 87.685 C 238.672 88.408,240.102 90.620,241.305 92.600 C 243.297 95.879,245.637 99.691,252.185 110.327 C 254.871 114.690,255.036 115.204,255.606 121.000 C 255.844 123.420,256.206 127.074,256.411 129.121 C 256.616 131.167,256.975 135.217,257.209 138.121 C 257.835 145.873,257.694 145.642,260.144 142.905 C 266.670 135.613,267.670 134.744,269.391 134.868 C 270.767 134.967,271.000 134.870,271.000 134.192 C 271.000 129.941,270.265 118.094,269.784 114.600 C 269.451 112.180,269.009 108.850,268.802 107.200 C 268.595 105.550,268.240 103.390,268.012 102.400 C 267.784 101.410,267.423 99.700,267.208 98.600 C 266.832 96.670,266.372 94.837,265.577 92.100 C 265.370 91.385,265.035 90.215,264.833 89.500 C 261.636 78.167,253.985 65.952,246.591 60.374 C 242.962 57.636,237.942 54.703,234.900 53.543 C 234.405 53.354,233.595 53.038,233.100 52.840 C 226.753 50.304,217.600 48.558,208.800 48.206 C 205.610 48.078,202.190 47.916,201.200 47.847 C 200.210 47.778,196.520 47.860,193.000 48.030 M129.078 140.274 C 128.244 141.623,129.299 143.600,130.852 143.600 C 131.704 143.600,132.400 143.525,132.400 143.434 C 132.400 142.907,129.283 139.942,129.078 140.274 M269.474 141.717 C 268.091 143.392,268.127 143.600,269.800 143.600 C 271.129 143.600,271.200 143.530,271.200 142.224 C 271.200 140.342,270.725 140.202,269.474 141.717 M136.172 148.355 C 136.380 148.692,136.761 152.231,137.593 161.564 C 138.053 166.723,138.343 168.087,138.936 167.884 C 139.431 167.715,139.422 166.751,138.880 162.000 C 138.692 160.350,138.680 157.112,138.854 154.803 L 139.170 150.607 137.906 149.303 C 136.750 148.110,135.649 147.508,136.172 148.355 M262.450 149.368 L 261.100 150.693 261.004 157.446 C 260.951 161.161,260.777 164.939,260.617 165.843 C 260.390 167.129,260.458 167.537,260.930 167.718 C 261.756 168.035,261.990 167.256,262.407 162.801 C 262.602 160.710,262.954 156.949,263.188 154.443 C 263.422 151.936,263.720 149.461,263.850 148.943 C 264.151 147.746,264.080 147.767,262.450 149.368 M155.600 264.834 C 147.482 267.456,146.115 268.040,144.253 269.682 C 143.564 270.290,142.883 270.790,142.740 270.794 C 141.565 270.822,134.287 279.953,132.213 284.000 C 129.344 289.599,129.200 291.278,129.200 319.251 L 129.200 344.303 130.500 344.793 C 145.746 350.536,143.008 371.249,126.999 371.275 C 114.986 371.294,109.102 356.951,117.600 348.362 C 119.310 346.633,120.379 345.987,123.492 344.802 L 124.784 344.310 124.940 317.655 C 125.089 292.134,125.244 287.867,126.042 287.374 C 126.239 287.252,126.400 286.801,126.400 286.371 C 126.400 285.941,126.560 285.277,126.756 284.895 C 126.952 284.513,127.531 283.300,128.043 282.200 C 129.252 279.603,132.416 274.844,133.770 273.586 C 135.954 271.559,135.841 271.196,133.292 272.052 C 132.031 272.475,130.370 273.008,129.600 273.237 C 128.830 273.466,127.840 273.802,127.400 273.984 C 126.960 274.167,124.170 275.073,121.200 275.999 C 118.230 276.925,114.810 278.035,113.600 278.467 C 112.390 278.898,109.870 279.706,108.000 280.261 C 100.919 282.362,95.273 284.335,89.424 286.749 C 77.302 291.755,67.347 299.355,63.862 306.268 C 62.894 308.187,59.498 321.245,58.418 327.200 C 58.159 328.630,57.781 330.520,57.578 331.400 C 56.368 336.652,55.917 339.772,56.347 339.916 C 56.596 339.999,56.800 340.332,56.800 340.657 C 56.800 340.982,56.980 341.136,57.200 341.000 C 57.420 340.864,57.600 340.943,57.600 341.176 C 57.600 341.409,57.965 341.600,58.410 341.600 C 58.990 341.600,59.288 341.941,59.460 342.800 C 59.592 343.460,59.903 344.002,60.150 344.004 C 60.398 344.006,61.025 344.546,61.545 345.204 C 62.065 345.862,62.674 346.400,62.899 346.400 C 63.123 346.400,64.871 347.992,66.783 349.939 C 68.694 351.885,70.707 353.590,71.256 353.728 C 71.804 353.866,72.497 354.433,72.794 354.989 C 73.092 355.545,73.485 356.000,73.668 356.000 C 74.397 356.000,74.647 356.169,75.828 357.459 C 76.504 358.197,77.269 358.800,77.528 358.800 C 77.788 358.800,78.000 358.980,78.000 359.200 C 78.000 359.420,78.270 359.600,78.600 359.600 C 78.930 359.600,79.200 359.780,79.200 360.000 C 79.200 360.220,79.470 360.400,79.800 360.400 C 80.130 360.400,80.400 360.580,80.400 360.800 C 80.400 361.020,80.598 361.200,80.840 361.200 C 81.081 361.200,81.783 361.740,82.400 362.400 C 83.017 363.060,83.679 363.600,83.872 363.600 C 84.064 363.600,84.530 363.960,84.907 364.400 C 85.284 364.840,85.914 365.200,86.308 365.200 C 86.701 365.200,87.283 365.560,87.600 366.000 C 87.917 366.440,88.457 366.800,88.800 366.800 C 89.143 366.800,89.683 367.160,90.000 367.600 C 90.317 368.040,90.857 368.400,91.200 368.400 C 91.543 368.400,92.083 368.760,92.400 369.200 C 92.717 369.640,93.207 370.000,93.488 370.000 C 93.770 370.000,94.000 370.180,94.000 370.400 C 94.000 370.620,94.360 370.800,94.800 370.800 C 95.240 370.800,95.960 371.160,96.400 371.600 C 96.840 372.040,97.370 372.400,97.577 372.400 C 97.785 372.400,98.190 372.715,98.477 373.100 C 98.985 373.781,100.873 374.669,102.700 375.087 C 103.195 375.201,103.600 375.452,103.600 375.647 C 103.600 375.841,103.960 376.000,104.400 376.000 C 104.840 376.000,105.200 376.180,105.200 376.400 C 105.200 376.620,105.571 376.800,106.024 376.800 C 106.477 376.800,106.736 376.980,106.600 377.200 C 106.464 377.420,106.633 377.600,106.976 377.600 C 107.319 377.600,107.600 377.780,107.600 378.000 C 107.600 378.220,107.941 378.400,108.357 378.400 C 108.774 378.400,109.222 378.681,109.354 379.025 C 109.486 379.369,109.776 379.539,109.997 379.402 C 110.219 379.265,110.400 379.343,110.400 379.576 C 110.400 379.809,110.850 380.000,111.400 380.000 C 111.950 380.000,112.400 380.180,112.400 380.400 C 112.400 380.620,112.850 380.800,113.400 380.800 C 113.950 380.800,114.400 380.980,114.400 381.200 C 114.400 381.420,114.760 381.600,115.200 381.600 C 115.640 381.600,116.000 381.780,116.000 382.000 C 116.000 382.220,116.360 382.400,116.800 382.400 C 117.240 382.400,117.600 382.580,117.600 382.800 C 117.600 383.020,117.870 383.200,118.200 383.200 C 118.530 383.200,118.800 383.380,118.800 383.600 C 118.800 383.820,119.250 384.000,119.800 384.000 C 120.350 384.000,120.800 384.180,120.800 384.400 C 120.800 384.620,121.340 384.800,122.000 384.800 C 122.660 384.800,123.200 384.980,123.200 385.200 C 123.200 385.420,123.549 385.600,123.976 385.600 C 124.403 385.600,124.864 385.780,125.000 386.000 C 125.136 386.220,125.687 386.400,126.224 386.400 C 126.761 386.400,127.201 386.535,127.203 386.700 C 127.208 387.147,129.226 388.000,130.280 388.000 C 130.786 388.000,131.200 388.180,131.200 388.400 C 131.200 388.620,131.639 388.800,132.176 388.800 C 132.713 388.800,133.264 388.980,133.400 389.200 C 133.536 389.420,134.076 389.600,134.600 389.600 C 135.124 389.600,135.664 389.780,135.800 390.000 C 135.936 390.220,136.476 390.400,137.000 390.400 C 137.524 390.400,138.073 390.595,138.220 390.832 C 138.367 391.070,138.918 391.157,139.444 391.025 C 139.983 390.889,140.400 390.962,140.400 391.192 C 140.400 391.417,141.030 391.600,141.800 391.600 C 142.570 391.600,143.200 391.780,143.200 392.000 C 143.200 392.220,143.740 392.400,144.400 392.400 C 145.060 392.400,145.600 392.580,145.600 392.800 C 145.600 393.020,146.140 393.200,146.800 393.200 C 147.460 393.200,148.000 393.380,148.000 393.600 C 148.000 393.820,148.810 394.000,149.800 394.000 C 150.790 394.000,151.600 394.180,151.600 394.400 C 151.600 394.620,152.309 394.800,153.176 394.800 C 154.043 394.800,154.864 394.980,155.000 395.200 C 155.136 395.420,155.856 395.600,156.600 395.600 C 157.344 395.600,158.064 395.780,158.200 396.000 C 158.336 396.220,159.337 396.400,160.424 396.400 C 161.511 396.400,162.400 396.580,162.400 396.800 C 162.400 397.020,163.300 397.200,164.400 397.200 C 165.500 397.200,166.400 397.380,166.400 397.600 C 166.400 397.826,167.533 398.000,169.000 398.000 C 170.467 398.000,171.600 398.174,171.600 398.400 C 171.600 398.628,172.789 398.800,174.367 398.800 C 176.224 398.800,177.188 398.964,177.300 399.300 C 177.431 399.692,182.329 399.800,200.000 399.800 C 217.671 399.800,222.569 399.692,222.700 399.300 C 222.814 398.959,223.820 398.800,225.857 398.800 C 227.749 398.800,228.756 398.653,228.600 398.400 C 228.445 398.149,229.329 398.000,230.976 398.000 C 232.459 398.000,233.600 397.826,233.600 397.600 C 233.600 397.380,234.500 397.200,235.600 397.200 C 236.700 397.200,237.600 397.020,237.600 396.800 C 237.600 396.580,238.489 396.400,239.576 396.400 C 240.663 396.400,241.664 396.220,241.800 396.000 C 241.936 395.780,242.757 395.600,243.624 395.600 C 244.491 395.600,245.200 395.420,245.200 395.200 C 245.200 394.980,245.920 394.800,246.800 394.800 C 247.680 394.800,248.400 394.620,248.400 394.400 C 248.400 394.180,249.210 394.000,250.200 394.000 C 251.190 394.000,252.000 393.820,252.000 393.600 C 252.000 393.380,252.540 393.200,253.200 393.200 C 253.860 393.200,254.400 393.020,254.400 392.800 C 254.400 392.580,254.940 392.400,255.600 392.400 C 256.260 392.400,256.800 392.220,256.800 392.000 C 256.800 391.780,257.430 391.600,258.200 391.600 C 258.970 391.600,259.600 391.425,259.600 391.210 C 259.600 390.990,260.123 390.925,260.800 391.060 C 261.564 391.213,262.000 391.137,262.000 390.850 C 262.000 390.603,262.540 390.400,263.200 390.400 C 263.860 390.400,264.400 390.220,264.400 390.000 C 264.400 389.780,264.850 389.600,265.400 389.600 C 265.950 389.600,266.400 389.420,266.400 389.200 C 266.400 388.980,266.940 388.800,267.600 388.800 C 268.260 388.800,268.800 388.620,268.800 388.400 C 268.800 388.180,269.233 388.000,269.762 388.000 C 270.595 388.000,271.706 387.556,274.895 385.950 C 275.277 385.757,275.862 385.600,276.195 385.600 C 276.528 385.600,276.800 385.420,276.800 385.200 C 276.800 384.980,277.239 384.800,277.776 384.800 C 278.313 384.800,278.864 384.620,279.000 384.400 C 279.136 384.180,279.597 384.000,280.024 384.000 C 280.451 384.000,280.800 383.820,280.800 383.600 C 280.800 383.380,281.160 383.200,281.600 383.200 C 282.040 383.200,282.400 383.020,282.400 382.800 C 282.400 382.580,282.760 382.400,283.200 382.400 C 283.640 382.400,284.000 382.220,284.000 382.000 C 284.000 381.780,284.360 381.600,284.800 381.600 C 285.240 381.600,285.600 381.420,285.600 381.200 C 285.600 380.980,286.050 380.800,286.600 380.800 C 287.150 380.800,287.600 380.620,287.600 380.400 C 287.600 380.180,288.151 380.000,288.824 380.000 C 289.537 380.000,289.944 379.833,289.800 379.600 C 289.658 379.370,290.030 379.197,290.676 379.194 C 291.549 379.189,291.666 379.101,291.200 378.800 C 290.704 378.480,290.741 378.411,291.412 378.406 C 291.858 378.403,292.483 378.040,292.800 377.600 C 293.117 377.160,293.697 376.800,294.088 376.800 C 294.480 376.800,294.800 376.620,294.800 376.400 C 294.800 376.180,295.160 376.000,295.600 376.000 C 296.040 376.000,296.400 375.843,296.400 375.650 C 296.400 375.340,298.638 374.680,298.911 374.910 C 298.970 374.959,299.453 374.595,299.985 374.100 C 300.516 373.605,301.187 373.200,301.475 373.200 C 301.764 373.200,302.000 373.020,302.000 372.800 C 302.000 372.580,302.251 372.400,302.557 372.400 C 302.864 372.400,303.222 372.119,303.354 371.775 C 303.486 371.431,303.776 371.261,303.997 371.398 C 304.219 371.535,304.400 371.457,304.400 371.224 C 304.400 370.991,304.745 370.800,305.167 370.800 C 305.588 370.800,305.996 370.612,306.073 370.382 C 306.149 370.152,306.602 369.935,307.078 369.899 C 307.555 369.863,307.936 369.736,307.925 369.617 C 307.849 368.782,308.096 368.400,308.712 368.400 C 309.103 368.400,309.683 368.040,310.000 367.600 C 310.317 367.160,310.857 366.800,311.200 366.800 C 311.543 366.800,312.083 366.440,312.400 366.000 C 312.717 365.560,313.214 365.200,313.505 365.200 C 314.169 365.200,316.255 363.741,317.654 362.300 C 318.241 361.695,318.919 361.200,319.160 361.200 C 319.402 361.200,319.600 361.020,319.600 360.800 C 319.600 360.580,319.870 360.400,320.200 360.400 C 320.530 360.400,320.802 360.265,320.805 360.100 C 320.807 359.935,321.527 359.456,322.405 359.036 C 323.282 358.615,324.000 358.148,324.000 357.997 C 324.000 357.466,325.500 356.000,326.047 355.996 C 326.351 355.994,327.025 355.454,327.545 354.796 C 328.065 354.138,328.732 353.600,329.027 353.600 C 329.323 353.600,331.152 352.025,333.091 350.100 C 335.031 348.175,337.103 346.348,337.696 346.040 C 338.288 345.732,338.678 345.327,338.563 345.140 C 338.447 344.953,338.663 344.800,339.043 344.800 C 339.423 344.800,339.617 344.683,339.474 344.541 C 339.331 344.398,339.599 343.948,340.068 343.541 C 340.538 343.133,340.792 342.800,340.633 342.800 C 340.237 342.800,341.459 341.603,341.871 341.587 C 344.236 341.491,344.344 339.405,342.420 331.000 C 342.218 330.120,341.838 328.230,341.576 326.800 C 338.076 307.760,334.988 301.588,325.709 295.091 C 317.181 289.119,301.256 282.319,289.800 279.759 C 289.140 279.612,288.150 279.255,287.600 278.967 C 287.050 278.678,285.520 278.098,284.200 277.677 C 282.880 277.256,278.830 275.965,275.200 274.808 C 271.570 273.651,268.240 272.573,267.800 272.412 C 267.360 272.251,266.394 271.920,265.654 271.677 L 264.307 271.234 265.054 272.099 C 265.464 272.574,266.282 273.511,266.871 274.181 C 272.663 280.768,274.752 286.872,275.147 298.355 L 275.400 305.710 277.484 306.243 C 282.399 307.499,286.988 311.153,288.982 315.400 C 289.602 316.720,290.309 318.160,290.554 318.600 C 291.172 319.708,290.915 343.347,290.214 349.937 C 289.474 356.895,287.697 361.382,284.625 364.053 L 283.636 364.913 284.818 366.017 C 287.193 368.236,285.927 372.000,282.806 372.000 C 282.067 372.000,281.134 371.702,280.732 371.338 C 278.755 369.549,268.305 369.357,265.365 371.055 C 261.638 373.208,258.331 369.644,261.054 366.409 L 262.108 365.156 260.954 363.900 C 260.319 363.208,259.588 362.409,259.329 362.122 C 258.457 361.157,256.809 357.276,256.190 354.730 C 255.168 350.525,254.551 322.260,255.417 319.284 C 257.333 312.693,262.186 307.861,268.516 306.242 L 270.600 305.710 270.711 299.763 C 271.036 282.395,262.306 270.560,245.087 265.023 C 237.066 262.443,236.000 262.299,236.000 263.796 C 236.000 264.070,235.482 265.893,234.848 267.847 C 233.574 271.776,232.792 274.275,230.606 281.400 C 229.796 284.040,228.782 287.190,228.353 288.400 C 227.332 291.279,225.230 297.804,223.394 303.800 C 222.585 306.440,221.427 310.130,220.820 312.000 C 220.214 313.870,219.305 316.750,218.800 318.400 C 218.295 320.050,217.369 322.951,216.741 324.847 C 216.114 326.744,215.600 328.658,215.600 329.102 C 215.600 330.007,214.520 333.829,213.963 334.895 C 213.763 335.277,213.600 335.864,213.600 336.200 C 213.600 336.536,213.438 337.123,213.239 337.505 C 213.040 337.887,212.663 339.010,212.400 340.000 C 212.137 340.990,211.760 342.113,211.561 342.495 C 211.362 342.877,211.200 343.464,211.200 343.800 C 211.200 344.136,211.038 344.723,210.839 345.105 C 210.640 345.487,210.260 346.610,209.993 347.600 C 209.727 348.590,209.371 349.760,209.202 350.200 C 209.033 350.640,208.492 352.350,208.000 354.000 C 207.508 355.650,206.968 357.360,206.800 357.800 C 206.487 358.622,204.801 363.988,202.965 370.000 C 200.168 379.161,200.021 379.251,198.078 373.000 C 197.325 370.580,196.570 368.240,196.400 367.800 C 196.230 367.360,195.873 366.190,195.607 365.200 C 195.340 364.210,194.960 363.087,194.761 362.705 C 194.562 362.323,194.400 361.659,194.400 361.229 C 194.400 360.799,194.220 360.336,194.000 360.200 C 193.780 360.064,193.600 359.434,193.600 358.800 C 193.600 358.166,193.420 357.536,193.200 357.400 C 192.980 357.264,192.800 356.801,192.800 356.371 C 192.800 355.941,192.638 355.277,192.439 354.895 C 192.240 354.513,191.863 353.390,191.600 352.400 C 191.337 351.410,190.960 350.287,190.761 349.905 C 190.562 349.523,190.400 348.936,190.400 348.600 C 190.400 348.264,190.238 347.677,190.041 347.295 C 189.844 346.913,189.279 345.250,188.786 343.600 C 188.292 341.950,187.569 339.610,187.177 338.400 C 185.575 333.451,184.400 329.235,184.400 328.437 C 184.400 327.971,184.238 327.277,184.041 326.895 C 183.844 326.513,183.279 324.850,182.786 323.200 C 182.292 321.550,181.566 319.210,181.172 318.000 C 180.778 316.790,180.190 314.900,179.865 313.800 C 178.735 309.968,172.805 291.173,171.629 287.699 C 170.978 285.775,169.894 282.400,169.220 280.200 C 167.873 275.804,165.967 269.732,164.579 265.414 C 163.468 261.958,164.332 262.014,155.600 264.834 M270.571 310.413 C 266.503 310.979,262.314 314.176,260.473 318.120 C 258.546 322.250,258.145 350.228,259.938 355.522 C 264.024 367.590,277.411 369.668,284.370 359.314 C 287.429 354.763,288.250 343.907,286.918 325.600 C 286.128 314.736,280.055 309.095,270.571 310.413 " stroke="none" fill="#e4e8e9" fill-rule="evenodd"></path><path id="path1" d="M179.204 0.299 C 177.116 0.373,175.235 0.605,175.024 0.816 C 174.813 1.027,173.416 1.200,171.920 1.200 C 170.373 1.200,169.200 1.373,169.200 1.600 C 169.200 1.820,168.221 2.000,167.024 2.000 C 165.827 2.000,164.736 2.180,164.600 2.400 C 164.464 2.620,163.474 2.800,162.400 2.800 C 161.326 2.800,160.336 2.980,160.200 3.200 C 160.064 3.420,159.243 3.600,158.376 3.600 C 157.509 3.600,156.800 3.780,156.800 4.000 C 156.800 4.220,156.091 4.400,155.224 4.400 C 154.357 4.400,153.536 4.580,153.400 4.800 C 153.264 5.020,152.454 5.200,151.600 5.200 C 150.746 5.200,149.936 5.380,149.800 5.600 C 149.664 5.820,149.023 6.000,148.376 6.000 C 147.729 6.000,147.200 6.180,147.200 6.400 C 147.200 6.620,146.570 6.800,145.800 6.800 C 145.030 6.800,144.400 6.980,144.400 7.200 C 144.400 7.420,143.781 7.600,143.024 7.600 C 142.267 7.600,141.536 7.780,141.400 8.000 C 141.264 8.220,140.634 8.400,140.000 8.400 C 139.366 8.400,138.743 8.569,138.616 8.775 C 138.488 8.981,138.073 9.143,137.692 9.136 C 136.932 9.123,130.548 11.319,130.128 11.738 C 129.984 11.882,129.447 12.000,128.933 12.000 C 128.420 12.000,128.000 12.180,128.000 12.400 C 128.000 12.620,127.728 12.800,127.395 12.800 C 127.062 12.800,126.477 12.959,126.095 13.153 C 125.395 13.509,123.966 14.108,122.300 14.743 C 121.805 14.932,120.618 15.472,119.662 15.943 C 118.706 16.414,117.671 16.800,117.362 16.800 C 117.053 16.800,116.800 16.980,116.800 17.200 C 116.800 17.420,116.440 17.600,116.000 17.600 C 115.560 17.600,115.200 17.780,115.200 18.000 C 115.200 18.220,114.851 18.400,114.424 18.400 C 113.997 18.400,113.536 18.580,113.400 18.800 C 113.264 19.020,112.818 19.200,112.410 19.200 C 112.001 19.200,111.607 19.335,111.533 19.500 C 111.371 19.865,108.076 21.600,107.545 21.600 C 107.337 21.600,106.780 21.960,106.308 22.400 C 105.836 22.840,105.213 23.200,104.925 23.200 C 104.636 23.200,104.400 23.380,104.400 23.600 C 104.400 23.820,104.040 24.000,103.600 24.000 C 103.160 24.000,102.800 24.180,102.800 24.400 C 102.800 24.620,102.440 24.800,102.000 24.800 C 101.560 24.800,101.200 24.960,101.200 25.157 C 101.200 25.353,100.707 25.637,100.104 25.788 C 99.501 25.940,98.916 26.184,98.804 26.332 C 98.504 26.726,96.310 28.015,95.500 28.271 C 95.115 28.393,94.800 28.652,94.800 28.847 C 94.800 29.041,94.530 29.200,94.200 29.200 C 93.870 29.200,93.600 29.358,93.600 29.551 C 93.600 29.745,93.060 30.127,92.400 30.400 C 91.740 30.673,91.200 31.055,91.200 31.249 C 91.200 31.442,90.964 31.600,90.675 31.600 C 90.387 31.600,89.764 31.960,89.292 32.400 C 88.820 32.840,88.196 33.200,87.905 33.200 C 87.614 33.200,87.117 33.560,86.800 34.000 C 86.483 34.440,85.975 34.800,85.672 34.800 C 85.369 34.800,84.644 35.295,84.060 35.900 C 83.477 36.505,82.505 37.255,81.900 37.568 C 81.295 37.880,80.800 38.285,80.800 38.468 C 80.800 38.650,80.530 38.800,80.200 38.800 C 79.870 38.800,79.600 38.980,79.600 39.200 C 79.600 39.420,79.402 39.600,79.160 39.600 C 78.919 39.600,78.217 40.140,77.600 40.800 C 76.983 41.460,76.281 42.000,76.040 42.000 C 75.798 42.000,75.600 42.210,75.600 42.467 C 75.600 42.723,75.495 42.828,75.366 42.699 C 75.238 42.571,74.480 43.081,73.683 43.833 C 72.886 44.585,72.096 45.200,71.927 45.200 C 71.759 45.200,70.848 45.965,69.903 46.900 C 68.959 47.835,67.469 49.138,66.593 49.795 C 65.717 50.452,63.516 52.522,61.702 54.395 C 57.724 58.502,58.502 57.724,54.395 61.702 C 52.522 63.516,50.452 65.717,49.795 66.593 C 49.138 67.469,47.835 68.959,46.900 69.903 C 45.965 70.848,45.200 71.759,45.200 71.927 C 45.200 72.096,44.585 72.886,43.833 73.683 C 43.081 74.480,42.571 75.238,42.699 75.366 C 42.828 75.495,42.723 75.600,42.467 75.600 C 42.210 75.600,42.000 75.798,42.000 76.040 C 42.000 76.281,41.460 76.983,40.800 77.600 C 40.140 78.217,39.600 78.919,39.600 79.160 C 39.600 79.402,39.420 79.600,39.200 79.600 C 38.980 79.600,38.800 79.870,38.800 80.200 C 38.800 80.530,38.650 80.800,38.468 80.800 C 38.285 80.800,37.880 81.295,37.568 81.900 C 37.255 82.505,36.505 83.477,35.900 84.060 C 35.295 84.644,34.800 85.369,34.800 85.672 C 34.800 85.975,34.440 86.483,34.000 86.800 C 33.560 87.117,33.200 87.614,33.200 87.905 C 33.200 88.196,32.840 88.820,32.400 89.292 C 31.960 89.764,31.600 90.387,31.600 90.675 C 31.600 90.964,31.442 91.200,31.249 91.200 C 31.055 91.200,30.673 91.740,30.400 92.400 C 30.127 93.060,29.745 93.600,29.551 93.600 C 29.358 93.600,29.200 93.870,29.200 94.200 C 29.200 94.530,29.041 94.800,28.847 94.800 C 28.652 94.800,28.393 95.115,28.271 95.500 C 28.015 96.310,26.726 98.504,26.332 98.804 C 26.184 98.916,25.940 99.501,25.788 100.104 C 25.637 100.707,25.353 101.200,25.157 101.200 C 24.960 101.200,24.800 101.560,24.800 102.000 C 24.800 102.440,24.620 102.800,24.400 102.800 C 24.180 102.800,24.000 103.160,24.000 103.600 C 24.000 104.040,23.820 104.400,23.600 104.400 C 23.380 104.400,23.200 104.636,23.200 104.925 C 23.200 105.213,22.840 105.836,22.400 106.308 C 21.960 106.780,21.600 107.337,21.600 107.545 C 21.600 108.076,19.865 111.371,19.500 111.533 C 19.335 111.607,19.200 112.001,19.200 112.410 C 19.200 112.818,19.020 113.264,18.800 113.400 C 18.580 113.536,18.400 113.997,18.400 114.424 C 18.400 114.851,18.220 115.200,18.000 115.200 C 17.780 115.200,17.600 115.560,17.600 116.000 C 17.600 116.440,17.420 116.800,17.200 116.800 C 16.980 116.800,16.800 117.053,16.800 117.362 C 16.800 117.671,16.414 118.706,15.943 119.662 C 15.472 120.618,14.932 121.805,14.743 122.300 C 14.108 123.966,13.509 125.395,13.153 126.095 C 12.959 126.477,12.800 127.062,12.800 127.395 C 12.800 127.728,12.620 128.000,12.400 128.000 C 12.180 128.000,12.000 128.420,12.000 128.933 C 12.000 129.447,11.882 129.984,11.738 130.128 C 11.319 130.548,9.123 136.932,9.136 137.692 C 9.143 138.073,8.981 138.488,8.775 138.616 C 8.569 138.743,8.400 139.366,8.400 140.000 C 8.400 140.634,8.220 141.264,8.000 141.400 C 7.780 141.536,7.600 142.267,7.600 143.024 C 7.600 143.781,7.420 144.400,7.200 144.400 C 6.980 144.400,6.800 145.030,6.800 145.800 C 6.800 146.570,6.620 147.200,6.400 147.200 C 6.180 147.200,6.000 147.729,6.000 148.376 C 6.000 149.023,5.820 149.664,5.600 149.800 C 5.380 149.936,5.200 150.746,5.200 151.600 C 5.200 152.454,5.020 153.264,4.800 153.400 C 4.580 153.536,4.400 154.357,4.400 155.224 C 4.400 156.091,4.220 156.800,4.000 156.800 C 3.780 156.800,3.600 157.509,3.600 158.376 C 3.600 159.243,3.420 160.064,3.200 160.200 C 2.980 160.336,2.800 161.326,2.800 162.400 C 2.800 163.474,2.620 164.464,2.400 164.600 C 2.180 164.736,2.000 165.827,2.000 167.024 C 2.000 168.221,1.820 169.200,1.600 169.200 C 1.373 169.200,1.200 170.373,1.200 171.920 C 1.200 173.470,0.998 174.842,0.730 175.110 C 0.061 175.779,-0.216 211.851,0.390 219.400 C 0.637 222.480,0.934 226.305,1.051 227.900 C 1.168 229.495,1.429 230.800,1.632 230.800 C 1.834 230.800,2.000 231.880,2.000 233.200 C 2.000 234.533,2.178 235.600,2.400 235.600 C 2.620 235.600,2.800 236.489,2.800 237.576 C 2.800 238.663,2.980 239.664,3.200 239.800 C 3.420 239.936,3.600 240.757,3.600 241.624 C 3.600 242.491,3.780 243.200,4.000 243.200 C 4.220 243.200,4.400 243.909,4.400 244.776 C 4.400 245.643,4.580 246.464,4.800 246.600 C 5.020 246.736,5.200 247.546,5.200 248.400 C 5.200 249.254,5.380 250.064,5.600 250.200 C 5.820 250.336,6.000 250.977,6.000 251.624 C 6.000 252.271,6.180 252.800,6.400 252.800 C 6.620 252.800,6.800 253.419,6.800 254.176 C 6.800 254.933,6.980 255.664,7.200 255.800 C 7.420 255.936,7.600 256.566,7.600 257.200 C 7.600 257.834,7.780 258.464,8.000 258.600 C 8.220 258.736,8.400 259.366,8.400 260.000 C 8.400 260.634,8.569 261.257,8.775 261.384 C 8.981 261.512,9.138 261.927,9.125 262.308 C 9.096 263.129,10.707 267.847,11.647 269.695 C 11.841 270.077,12.000 270.752,12.000 271.195 C 12.000 271.638,12.180 272.000,12.400 272.000 C 12.620 272.000,12.800 272.272,12.800 272.605 C 12.800 272.938,12.959 273.523,13.153 273.905 C 13.509 274.605,14.108 276.034,14.743 277.700 C 14.932 278.195,15.472 279.382,15.943 280.338 C 16.414 281.294,16.800 282.329,16.800 282.638 C 16.800 282.947,16.980 283.200,17.200 283.200 C 17.420 283.200,17.600 283.560,17.600 284.000 C 17.600 284.440,17.780 284.800,18.000 284.800 C 18.220 284.800,18.400 285.124,18.400 285.520 C 18.400 286.414,19.294 288.393,19.700 288.397 C 19.865 288.399,20.000 288.760,20.000 289.200 C 20.000 289.640,20.135 290.001,20.300 290.003 C 20.611 290.006,21.600 291.903,21.600 292.496 C 21.600 292.682,21.960 293.220,22.400 293.692 C 22.840 294.164,23.200 294.787,23.200 295.075 C 23.200 295.364,23.380 295.600,23.600 295.600 C 23.820 295.600,24.000 295.960,24.000 296.400 C 24.000 296.840,24.180 297.200,24.400 297.200 C 24.620 297.200,24.800 297.560,24.800 298.000 C 24.800 298.440,24.980 298.800,25.200 298.800 C 25.420 298.800,25.600 299.147,25.600 299.571 C 25.600 299.996,25.870 300.613,26.200 300.943 C 26.530 301.273,26.800 301.665,26.800 301.813 C 26.800 301.962,27.340 302.884,28.000 303.862 C 28.660 304.840,29.200 305.811,29.200 306.020 C 29.200 306.229,29.358 306.400,29.551 306.400 C 29.745 306.400,30.127 306.940,30.400 307.600 C 30.673 308.260,31.055 308.800,31.249 308.800 C 31.442 308.800,31.600 309.120,31.600 309.512 C 31.600 309.903,31.960 310.483,32.400 310.800 C 32.840 311.117,33.200 311.657,33.200 312.000 C 33.200 312.343,33.560 312.883,34.000 313.200 C 34.440 313.517,34.800 314.025,34.800 314.328 C 34.800 314.631,35.340 315.383,36.000 316.000 C 36.660 316.617,37.200 317.369,37.200 317.672 C 37.200 317.975,37.560 318.483,38.000 318.800 C 38.440 319.117,38.800 319.585,38.800 319.840 C 38.800 320.095,39.520 321.045,40.400 321.952 C 41.280 322.859,42.000 323.704,42.000 323.829 C 42.000 323.954,42.225 324.308,42.500 324.615 C 43.062 325.241,43.242 325.467,45.196 328.000 C 45.959 328.990,47.038 330.250,47.593 330.800 C 48.148 331.350,49.097 332.463,49.701 333.273 C 51.691 335.941,54.720 338.806,55.312 338.579 C 55.654 338.447,56.079 337.220,56.383 335.480 C 56.661 333.896,57.030 332.060,57.204 331.400 C 57.378 330.740,57.730 329.030,57.987 327.600 C 58.474 324.888,59.007 322.377,59.600 320.000 C 59.792 319.230,60.162 317.700,60.421 316.600 C 60.680 315.500,61.039 314.060,61.219 313.400 C 61.399 312.740,61.761 311.390,62.025 310.400 C 63.230 305.876,66.236 301.200,69.945 298.081 C 73.042 295.476,75.565 293.600,75.970 293.600 C 76.170 293.600,76.393 293.450,76.467 293.267 C 76.540 293.084,77.680 292.337,79.000 291.608 C 87.448 286.941,95.175 283.788,106.400 280.426 C 108.050 279.932,110.300 279.205,111.400 278.810 C 112.500 278.416,113.940 277.903,114.600 277.671 C 117.911 276.504,134.756 271.200,135.148 271.200 C 135.884 271.200,135.669 271.796,134.561 272.830 C 133.989 273.364,133.162 274.340,132.722 275.000 C 131.997 276.088,132.043 276.070,133.218 274.800 C 137.905 269.736,139.453 268.249,142.444 265.938 C 144.290 264.513,146.610 262.884,147.600 262.319 C 153.749 258.809,153.723 258.822,160.896 255.641 C 161.938 255.178,162.976 254.800,163.201 254.800 C 163.426 254.800,163.923 254.638,164.305 254.439 C 164.687 254.240,165.810 253.854,166.800 253.581 C 167.790 253.308,169.371 252.841,170.314 252.542 C 171.257 252.244,172.304 252.000,172.641 252.000 C 173.312 252.000,173.202 248.445,172.348 242.600 C 171.475 236.614,171.497 236.653,167.038 233.208 C 154.750 223.713,146.169 212.235,138.247 194.695 L 137.205 192.390 135.686 192.633 C 129.648 193.598,125.025 187.046,122.819 174.400 C 122.608 173.190,122.127 170.490,121.750 168.400 C 119.413 155.433,121.558 146.043,127.246 144.339 C 128.799 143.874,128.800 143.872,128.800 141.737 C 128.800 139.537,129.023 139.237,130.014 140.100 C 130.330 140.375,130.190 140.143,129.703 139.584 C 127.938 137.557,129.435 112.448,131.993 101.200 C 132.218 100.210,132.573 98.500,132.782 97.400 C 132.991 96.300,133.545 94.140,134.014 92.600 C 134.483 91.060,135.042 89.080,135.257 88.200 C 138.234 75.997,148.640 62.166,159.436 56.062 C 178.998 45.002,217.100 44.411,238.200 54.840 C 251.499 61.413,259.975 72.591,265.621 91.000 C 266.760 94.715,268.186 101.166,268.849 105.600 C 270.236 114.889,270.793 121.031,271.012 129.440 C 271.104 132.982,271.294 136.180,271.435 136.547 C 271.658 137.128,271.600 137.862,271.207 139.400 C 270.542 142.007,271.202 143.611,273.326 144.550 C 279.652 147.348,280.921 155.841,277.572 172.975 C 274.674 187.805,270.569 193.821,264.169 192.621 L 262.759 192.356 261.701 194.878 C 255.122 210.564,244.946 224.077,232.604 233.517 C 228.564 236.607,228.473 236.785,227.652 243.200 C 226.784 249.992,226.720 252.000,227.375 252.000 C 227.703 252.000,228.743 252.244,229.686 252.542 C 230.629 252.841,232.210 253.312,233.200 253.590 C 234.190 253.868,235.720 254.359,236.600 254.681 C 238.099 255.229,238.801 255.521,242.106 256.974 C 242.824 257.290,243.909 257.737,244.517 257.969 C 249.370 259.814,259.610 266.989,263.638 271.367 C 264.869 272.705,266.371 274.340,266.975 275.000 L 268.073 276.200 267.276 275.000 C 266.837 274.340,266.011 273.364,265.439 272.830 C 262.983 270.538,263.565 270.625,274.774 274.235 C 287.264 278.257,287.226 278.245,288.818 278.929 C 289.578 279.256,291.010 279.748,292.000 280.023 C 308.404 284.575,323.434 291.869,330.846 298.877 C 335.702 303.467,337.080 306.214,339.540 316.200 C 339.757 317.080,340.121 318.520,340.350 319.400 C 340.755 320.954,341.059 322.404,342.027 327.400 C 342.283 328.720,342.634 330.340,342.808 331.000 C 342.982 331.660,343.356 333.589,343.639 335.287 C 343.949 337.144,344.374 338.458,344.705 338.585 C 345.276 338.804,348.328 335.910,350.300 333.279 C 350.905 332.472,351.966 331.237,352.657 330.535 C 353.348 329.833,354.428 328.572,355.057 327.732 C 355.686 326.893,356.605 325.791,357.100 325.285 C 357.595 324.778,358.000 324.237,358.000 324.082 C 358.001 323.927,358.406 323.320,358.900 322.734 C 359.395 322.147,360.115 321.290,360.500 320.829 C 360.885 320.368,361.200 319.813,361.200 319.595 C 361.200 319.378,361.350 319.200,361.532 319.200 C 361.715 319.200,362.120 318.705,362.432 318.100 C 362.745 317.495,363.495 316.523,364.100 315.940 C 364.705 315.356,365.200 314.631,365.200 314.328 C 365.200 314.025,365.560 313.517,366.000 313.200 C 366.440 312.883,366.800 312.343,366.800 312.000 C 366.800 311.657,367.160 311.117,367.600 310.800 C 368.040 310.483,368.400 309.903,368.400 309.512 C 368.400 309.120,368.551 308.800,368.736 308.800 C 368.920 308.800,369.288 308.395,369.552 307.900 C 370.117 306.839,370.630 305.998,372.108 303.708 C 372.709 302.777,373.200 301.930,373.200 301.826 C 373.200 301.721,373.650 300.972,374.200 300.162 C 374.750 299.351,375.200 298.353,375.200 297.944 C 375.200 297.535,375.380 297.200,375.600 297.200 C 375.820 297.200,376.000 296.840,376.000 296.400 C 376.000 295.960,376.135 295.599,376.300 295.597 C 376.465 295.595,376.798 295.190,377.040 294.697 C 378.222 292.289,379.430 290.187,379.700 290.067 C 379.865 289.993,380.000 289.588,380.000 289.167 C 380.000 288.745,380.135 288.399,380.300 288.397 C 380.706 288.393,381.600 286.414,381.600 285.520 C 381.600 285.124,381.780 284.800,382.000 284.800 C 382.220 284.800,382.400 284.440,382.400 284.000 C 382.400 283.560,382.580 283.200,382.800 283.200 C 383.020 283.200,383.200 282.840,383.200 282.400 C 383.200 281.960,383.380 281.600,383.600 281.600 C 383.820 281.600,384.000 281.328,384.000 280.995 C 384.000 280.662,384.180 280.032,384.400 279.595 C 384.620 279.158,384.980 278.442,385.200 278.005 C 385.420 277.568,385.600 276.938,385.600 276.605 C 385.600 276.272,385.780 276.000,386.000 276.000 C 386.220 276.000,386.400 275.550,386.400 275.000 C 386.400 274.450,386.580 274.000,386.800 274.000 C 387.020 274.000,387.200 273.651,387.200 273.224 C 387.200 272.797,387.380 272.336,387.600 272.200 C 387.820 272.064,388.000 271.601,388.000 271.171 C 388.000 270.741,388.180 270.032,388.400 269.595 C 388.620 269.158,388.980 268.442,389.200 268.005 C 389.420 267.568,389.600 266.936,389.600 266.600 C 389.600 266.264,389.774 265.677,389.987 265.295 C 390.682 264.049,391.600 260.800,391.600 259.586 C 391.600 258.934,391.780 258.400,392.000 258.400 C 392.220 258.400,392.400 257.871,392.400 257.224 C 392.400 256.577,392.580 255.936,392.800 255.800 C 393.020 255.664,393.200 254.933,393.200 254.176 C 393.200 253.419,393.380 252.800,393.600 252.800 C 393.820 252.800,394.000 252.260,394.000 251.600 C 394.000 250.940,394.180 250.400,394.400 250.400 C 394.620 250.400,394.800 249.601,394.800 248.624 C 394.800 247.647,394.980 246.736,395.200 246.600 C 395.420 246.464,395.600 245.643,395.600 244.776 C 395.600 243.909,395.780 243.200,396.000 243.200 C 396.220 243.200,396.400 242.491,396.400 241.624 C 396.400 240.757,396.580 239.936,396.800 239.800 C 397.020 239.664,397.200 238.674,397.200 237.600 C 397.200 236.526,397.380 235.536,397.600 235.400 C 397.820 235.264,398.000 234.173,398.000 232.976 C 398.000 231.779,398.180 230.800,398.400 230.800 C 398.627 230.800,398.800 229.627,398.800 228.080 C 398.800 226.437,398.998 225.162,399.300 224.860 C 399.689 224.471,399.800 218.955,399.800 200.000 C 399.800 181.045,399.689 175.529,399.300 175.140 C 398.998 174.838,398.800 173.563,398.800 171.920 C 398.800 170.373,398.627 169.200,398.400 169.200 C 398.180 169.200,398.000 168.221,398.000 167.024 C 398.000 165.827,397.820 164.736,397.600 164.600 C 397.380 164.464,397.200 163.474,397.200 162.400 C 397.200 161.326,397.020 160.336,396.800 160.200 C 396.580 160.064,396.400 159.243,396.400 158.376 C 396.400 157.509,396.220 156.800,396.000 156.800 C 395.780 156.800,395.600 156.091,395.600 155.224 C 395.600 154.357,395.420 153.536,395.200 153.400 C 394.980 153.264,394.800 152.454,394.800 151.600 C 394.800 150.746,394.620 149.936,394.400 149.800 C 394.180 149.664,394.000 149.023,394.000 148.376 C 394.000 147.729,393.820 147.200,393.600 147.200 C 393.380 147.200,393.200 146.581,393.200 145.824 C 393.200 145.067,393.041 144.349,392.846 144.229 C 392.651 144.108,392.397 143.513,392.280 142.905 C 391.462 138.646,389.669 132.892,388.353 130.305 C 388.159 129.923,388.000 129.248,388.000 128.805 C 388.000 128.362,387.820 128.000,387.600 128.000 C 387.380 128.000,387.200 127.651,387.200 127.224 C 387.200 126.797,387.020 126.336,386.800 126.200 C 386.580 126.064,386.400 125.513,386.400 124.976 C 386.400 124.439,386.220 124.000,386.000 124.000 C 385.780 124.000,385.600 123.651,385.600 123.224 C 385.600 122.797,385.420 122.336,385.200 122.200 C 384.980 122.064,384.800 121.513,384.800 120.976 C 384.800 120.439,384.620 120.000,384.400 120.000 C 384.180 120.000,384.000 119.640,384.000 119.200 C 384.000 118.760,383.820 118.400,383.600 118.400 C 383.380 118.400,383.200 118.040,383.200 117.600 C 383.200 117.160,383.020 116.800,382.800 116.800 C 382.580 116.800,382.400 116.440,382.400 116.000 C 382.400 115.560,382.220 115.200,382.000 115.200 C 381.780 115.200,381.600 114.750,381.600 114.200 C 381.600 113.650,381.420 113.200,381.200 113.200 C 380.980 113.200,380.800 112.840,380.800 112.400 C 380.800 111.960,380.620 111.600,380.400 111.600 C 380.180 111.600,380.000 111.240,380.000 110.800 C 380.000 110.360,379.865 109.999,379.700 109.997 C 379.389 109.994,378.400 108.097,378.400 107.504 C 378.400 107.318,378.040 106.780,377.600 106.308 C 377.160 105.836,376.800 105.213,376.800 104.925 C 376.800 104.636,376.620 104.400,376.400 104.400 C 376.180 104.400,376.000 104.040,376.000 103.600 C 376.000 103.160,375.820 102.800,375.600 102.800 C 375.380 102.800,375.200 102.482,375.200 102.093 C 375.200 101.704,374.750 100.723,374.200 99.914 C 373.650 99.105,373.200 98.330,373.200 98.193 C 373.200 98.056,372.660 97.159,372.000 96.200 C 371.340 95.241,370.800 94.263,370.800 94.028 C 370.800 93.793,370.642 93.600,370.449 93.600 C 370.255 93.600,369.873 93.060,369.600 92.400 C 369.327 91.740,368.945 91.200,368.751 91.200 C 368.558 91.200,368.400 90.964,368.400 90.675 C 368.400 90.387,368.040 89.764,367.600 89.292 C 367.160 88.820,366.800 88.196,366.800 87.905 C 366.800 87.614,366.440 87.117,366.000 86.800 C 365.560 86.483,365.200 85.975,365.200 85.672 C 365.200 85.369,364.660 84.617,364.000 84.000 C 363.340 83.383,362.800 82.631,362.800 82.328 C 362.800 82.025,362.440 81.517,362.000 81.200 C 361.560 80.883,361.200 80.485,361.200 80.316 C 361.200 80.023,360.981 79.732,358.900 77.266 C 358.406 76.680,358.001 76.073,358.000 75.918 C 358.000 75.763,357.591 75.223,357.091 74.718 C 356.592 74.213,355.742 73.170,355.204 72.400 C 354.666 71.630,353.584 70.370,352.800 69.600 C 352.016 68.830,350.936 67.570,350.400 66.800 C 349.864 66.030,347.800 63.828,345.813 61.906 C 343.826 59.985,342.066 58.275,341.902 58.106 C 341.738 57.938,340.113 56.265,338.292 54.389 C 336.470 52.513,334.264 50.443,333.390 49.790 C 332.515 49.137,331.350 48.148,330.800 47.593 C 330.250 47.038,328.990 45.960,328.000 45.198 C 327.010 44.435,325.981 43.629,325.714 43.406 C 325.447 43.183,324.959 42.775,324.631 42.500 C 324.302 42.225,323.936 42.000,323.817 42.000 C 323.698 42.000,322.859 41.280,321.952 40.400 C 321.045 39.520,320.095 38.800,319.840 38.800 C 319.585 38.800,319.117 38.440,318.800 38.000 C 318.483 37.560,317.975 37.200,317.672 37.200 C 317.369 37.200,316.617 36.660,316.000 36.000 C 315.383 35.340,314.631 34.800,314.328 34.800 C 314.025 34.800,313.517 34.440,313.200 34.000 C 312.883 33.560,312.343 33.200,312.000 33.200 C 311.657 33.200,311.117 32.840,310.800 32.400 C 310.483 31.960,309.903 31.600,309.512 31.600 C 309.120 31.600,308.800 31.442,308.800 31.249 C 308.800 31.055,308.260 30.673,307.600 30.400 C 306.940 30.127,306.400 29.745,306.400 29.551 C 306.400 29.358,306.229 29.200,306.020 29.200 C 305.811 29.200,304.840 28.660,303.862 28.000 C 302.884 27.340,301.962 26.800,301.813 26.800 C 301.665 26.800,301.273 26.530,300.943 26.200 C 300.613 25.870,299.996 25.600,299.571 25.600 C 299.147 25.600,298.800 25.420,298.800 25.200 C 298.800 24.980,298.440 24.800,298.000 24.800 C 297.560 24.800,297.200 24.620,297.200 24.400 C 297.200 24.180,296.840 24.000,296.400 24.000 C 295.960 24.000,295.600 23.820,295.600 23.600 C 295.600 23.380,295.364 23.200,295.075 23.200 C 294.787 23.200,294.164 22.840,293.692 22.400 C 293.220 21.960,292.682 21.600,292.496 21.600 C 291.903 21.600,290.006 20.611,290.003 20.300 C 290.001 20.135,289.640 20.000,289.200 20.000 C 288.760 20.000,288.399 19.865,288.397 19.700 C 288.393 19.294,286.414 18.400,285.520 18.400 C 285.124 18.400,284.800 18.220,284.800 18.000 C 284.800 17.780,284.440 17.600,284.000 17.600 C 283.560 17.600,283.200 17.420,283.200 17.200 C 283.200 16.980,282.947 16.800,282.638 16.800 C 282.329 16.800,281.294 16.414,280.338 15.943 C 279.382 15.472,278.150 14.908,277.600 14.690 C 277.050 14.471,276.150 14.116,275.600 13.900 C 275.050 13.684,274.287 13.348,273.905 13.153 C 273.523 12.959,272.938 12.800,272.605 12.800 C 272.272 12.800,272.000 12.620,272.000 12.400 C 272.000 12.180,271.638 12.000,271.195 12.000 C 270.752 12.000,270.077 11.841,269.695 11.647 C 267.847 10.707,263.129 9.096,262.308 9.125 C 261.927 9.138,261.512 8.981,261.384 8.775 C 261.257 8.569,260.634 8.400,260.000 8.400 C 259.366 8.400,258.736 8.220,258.600 8.000 C 258.464 7.780,257.834 7.600,257.200 7.600 C 256.566 7.600,255.936 7.420,255.800 7.200 C 255.664 6.980,254.933 6.800,254.176 6.800 C 253.419 6.800,252.800 6.620,252.800 6.400 C 252.800 6.180,252.271 6.000,251.624 6.000 C 250.977 6.000,250.336 5.820,250.200 5.600 C 250.064 5.380,249.254 5.200,248.400 5.200 C 247.546 5.200,246.736 5.020,246.600 4.800 C 246.464 4.580,245.643 4.400,244.776 4.400 C 243.909 4.400,243.200 4.220,243.200 4.000 C 243.200 3.780,242.491 3.600,241.624 3.600 C 240.757 3.600,239.936 3.420,239.800 3.200 C 239.664 2.980,238.663 2.800,237.576 2.800 C 236.489 2.800,235.600 2.620,235.600 2.400 C 235.600 2.178,234.533 2.000,233.200 2.000 C 231.880 2.000,230.800 1.834,230.800 1.632 C 230.800 1.429,229.495 1.166,227.900 1.046 C 226.305 0.927,222.930 0.658,220.400 0.448 C 216.144 0.096,187.915 -0.007,179.204 0.299 M258.975 144.500 L 257.800 145.800 259.100 144.625 C 259.815 143.979,260.400 143.394,260.400 143.325 C 260.400 143.016,260.070 143.288,258.975 144.500 M138.901 158.600 C 138.905 159.480,138.987 159.793,139.083 159.295 C 139.179 158.798,139.175 158.078,139.075 157.695 C 138.975 157.313,138.896 157.720,138.901 158.600 M260.901 158.600 C 260.905 159.480,260.987 159.793,261.083 159.295 C 261.179 158.798,261.175 158.078,261.075 157.695 C 260.975 157.313,260.896 157.720,260.901 158.600 M227.093 256.800 C 227.302 260.184,227.600 261.654,227.600 259.296 L 227.600 258.058 229.900 258.293 C 231.796 258.487,232.518 258.795,234.006 260.048 C 235.503 261.307,237.179 262.018,243.806 264.205 C 248.203 265.656,252.199 267.104,252.686 267.422 C 253.681 268.071,254.001 268.139,253.997 267.700 C 253.995 267.432,253.196 266.888,250.600 265.388 C 250.160 265.133,249.080 264.509,248.200 264.001 C 245.297 262.324,242.626 260.968,240.800 260.246 C 239.810 259.855,238.460 259.290,237.800 258.992 C 237.140 258.693,234.496 257.802,231.925 257.010 C 227.605 255.680,227.236 255.489,227.067 254.486 C 226.966 253.889,226.978 254.930,227.093 256.800 M167.000 257.412 C 161.674 259.240,158.416 260.539,155.210 262.114 C 150.240 264.555,142.422 270.052,139.217 273.360 C 136.641 276.017,137.491 275.626,140.260 272.879 C 144.877 268.300,147.464 266.973,158.400 263.573 C 163.450 262.003,164.407 261.550,166.324 259.830 C 167.541 258.738,168.203 258.473,170.100 258.320 L 172.400 258.134 172.455 259.367 C 172.485 260.045,172.644 259.430,172.809 258.000 C 172.974 256.570,173.084 255.390,173.054 255.377 C 173.025 255.364,170.300 256.280,167.000 257.412 M255.800 269.272 C 256.680 269.999,258.639 271.816,260.154 273.310 C 261.668 274.804,262.977 275.957,263.061 275.873 C 263.293 275.641,257.198 269.921,255.600 268.870 C 254.327 268.034,254.345 268.070,255.800 269.272 M197.600 275.342 C 193.916 277.264,192.194 278.206,192.000 278.405 C 191.890 278.518,190.945 279.042,189.900 279.568 C 188.329 280.360,188.009 280.705,188.054 281.563 C 188.102 282.460,188.132 282.483,188.278 281.730 C 188.430 280.953,192.517 278.384,198.500 275.307 C 199.105 274.996,199.600 274.665,199.600 274.571 C 199.600 274.309,199.526 274.338,197.600 275.342 M201.200 274.966 C 201.750 275.294,204.270 276.711,206.800 278.116 C 211.115 280.511,211.400 280.745,211.398 281.897 C 211.397 282.573,211.532 283.042,211.698 282.939 C 211.864 282.837,212.000 282.267,212.000 281.673 C 212.000 280.415,211.450 280.023,204.800 276.549 C 203.590 275.917,202.510 275.289,202.400 275.154 C 202.290 275.019,201.750 274.787,201.200 274.639 L 200.200 274.371 201.200 274.966 M135.561 277.705 C 133.404 280.843,132.687 282.000,132.897 282.000 C 133.002 282.000,133.765 280.965,134.594 279.700 C 135.423 278.435,136.470 276.995,136.920 276.500 C 137.371 276.005,137.573 275.602,137.370 275.605 C 137.166 275.607,136.352 276.552,135.561 277.705 M130.998 277.202 C 130.598 277.644,130.366 278.099,130.482 278.215 C 130.597 278.330,130.990 277.969,131.355 277.412 C 132.152 276.196,131.993 276.102,130.998 277.202 M265.270 279.500 C 267.211 282.463,268.500 284.139,267.807 282.800 C 266.982 281.205,263.767 276.410,263.519 276.405 C 263.365 276.402,264.153 277.795,265.270 279.500 M269.336 278.462 C 270.128 279.707,271.259 281.777,271.850 283.062 C 272.856 285.254,273.130 286.082,274.012 289.600 L 274.363 291.000 274.219 289.600 C 273.876 286.272,270.496 278.523,268.681 276.902 C 268.238 276.506,268.524 277.187,269.336 278.462 M129.281 280.100 C 128.212 281.873,127.062 284.399,127.248 284.564 C 127.331 284.639,128.064 283.372,128.876 281.750 C 130.424 278.656,130.611 277.895,129.281 280.100 M131.781 283.637 C 131.429 284.318,131.212 284.945,131.299 285.032 C 131.386 285.119,131.756 284.562,132.122 283.795 C 132.944 282.070,132.659 281.938,131.781 283.637 M130.577 286.243 C 130.444 286.659,130.170 287.413,129.967 287.919 C 129.765 288.424,129.613 289.144,129.629 289.519 C 129.645 289.893,130.005 289.224,130.428 288.032 C 130.851 286.840,131.112 285.779,131.008 285.675 C 130.904 285.571,130.710 285.826,130.577 286.243 M126.067 287.710 C 125.774 288.707,125.615 289.946,125.713 290.462 C 125.848 291.173,125.904 291.079,125.946 290.074 C 125.975 289.344,126.191 288.390,126.425 287.953 C 126.659 287.516,126.794 286.874,126.725 286.527 C 126.656 286.180,126.360 286.713,126.067 287.710 M269.634 288.000 C 269.646 288.330,269.811 288.960,270.000 289.400 L 270.344 290.200 270.366 289.400 C 270.378 288.960,270.213 288.330,270.000 288.000 C 269.655 287.467,269.615 287.467,269.634 288.000 M209.200 288.484 C 209.200 288.604,208.928 289.354,208.595 290.151 C 208.262 290.948,208.073 291.600,208.176 291.600 C 208.531 291.600,209.704 288.770,209.452 288.519 C 209.314 288.380,209.200 288.365,209.200 288.484 M129.056 291.684 C 128.921 292.188,128.831 293.230,128.855 294.000 C 128.889 295.069,128.975 294.880,129.218 293.202 C 129.553 290.892,129.472 290.133,129.056 291.684 M270.673 292.400 C 270.804 293.390,270.976 294.275,271.056 294.367 C 271.357 294.714,271.128 292.164,270.790 291.400 C 270.553 290.866,270.514 291.198,270.673 292.400 M124.897 320.267 L 124.800 344.733 123.700 345.135 C 122.765 345.477,122.727 345.542,123.451 345.568 C 125.216 345.634,125.211 345.704,125.100 320.155 L 124.994 295.800 124.897 320.267 M274.979 301.167 C 274.996 305.232,275.109 306.164,275.600 306.298 C 276.030 306.415,276.062 306.363,275.713 306.115 C 275.392 305.887,275.181 304.148,275.093 300.985 L 274.959 296.200 274.979 301.167 M190.649 307.015 C 190.512 307.373,190.415 307.966,190.434 308.333 C 190.453 308.700,190.627 308.469,190.821 307.820 C 191.198 306.558,191.065 305.933,190.649 307.015 M272.305 309.883 C 272.802 309.979,273.522 309.975,273.905 309.875 C 274.287 309.775,273.880 309.696,273.000 309.701 C 272.120 309.705,271.807 309.787,272.305 309.883 M285.400 311.200 C 286.259 312.080,287.052 312.800,287.162 312.800 C 287.272 312.800,286.659 312.080,285.800 311.200 C 284.941 310.320,284.148 309.600,284.038 309.600 C 283.928 309.600,284.541 310.320,285.400 311.200 M259.978 311.500 L 258.600 313.000 260.196 311.600 C 261.073 310.830,261.868 310.155,261.962 310.100 C 262.056 310.045,261.959 310.000,261.745 310.000 C 261.532 310.000,260.737 310.675,259.978 311.500 M188.846 313.267 C 188.821 313.634,188.696 314.264,188.570 314.667 C 188.352 315.362,188.363 315.363,188.797 314.687 C 189.048 314.296,189.173 313.666,189.073 313.287 C 188.911 312.668,188.888 312.666,188.846 313.267 M211.444 315.400 C 211.773 316.871,212.002 317.190,211.994 316.167 C 211.991 315.745,211.805 315.130,211.582 314.800 C 211.285 314.362,211.248 314.524,211.444 315.400 M212.248 318.200 C 212.391 318.860,212.666 319.670,212.859 320.000 C 213.084 320.384,213.118 320.168,212.952 319.400 C 212.809 318.740,212.534 317.930,212.341 317.600 C 212.116 317.216,212.082 317.432,212.248 318.200 M186.667 320.667 C 186.309 321.923,186.087 323.020,186.172 323.105 C 186.256 323.190,186.623 322.237,186.987 320.987 C 187.350 319.737,187.573 318.640,187.482 318.548 C 187.391 318.457,187.024 319.411,186.667 320.667 M290.509 321.600 C 290.509 322.590,290.587 322.995,290.682 322.500 C 290.778 322.005,290.778 321.195,290.682 320.700 C 290.587 320.205,290.509 320.610,290.509 321.600 M255.054 322.256 C 254.712 324.756,254.743 329.292,255.106 329.856 C 255.268 330.107,255.411 328.082,255.424 325.356 C 255.451 319.845,255.420 319.588,255.054 322.256 M286.875 325.200 C 286.864 327.070,286.993 328.950,287.160 329.377 C 287.328 329.805,287.395 328.545,287.309 326.577 C 287.098 321.715,286.897 321.078,286.875 325.200 M213.844 323.400 C 214.173 324.871,214.402 325.190,214.394 324.167 C 214.391 323.745,214.205 323.130,213.982 322.800 C 213.685 322.362,213.648 322.524,213.844 323.400 M258.540 326.800 C 258.540 328.670,258.609 329.435,258.693 328.500 C 258.777 327.565,258.777 326.035,258.693 325.100 C 258.609 324.165,258.540 324.930,258.540 326.800 M290.924 326.600 C 290.926 327.920,291.001 328.412,291.090 327.693 C 291.179 326.974,291.177 325.894,291.086 325.293 C 290.995 324.692,290.922 325.280,290.924 326.600 M287.666 330.800 C 287.897 331.508,290.400 331.873,290.400 331.198 C 290.400 330.925,290.077 330.849,289.581 331.006 C 289.117 331.153,288.482 331.035,288.116 330.733 C 287.569 330.282,287.500 330.292,287.666 330.800 M255.684 340.000 C 255.632 348.354,256.086 354.104,256.993 356.600 C 258.002 359.374,259.364 361.726,260.953 363.436 C 261.957 364.516,262.782 365.535,262.789 365.700 C 262.795 365.865,263.120 366.000,263.512 366.000 C 263.903 366.000,264.483 366.360,264.800 366.800 C 265.439 367.686,273.200 368.056,273.200 367.200 C 273.200 366.980,272.812 366.800,272.339 366.800 C 269.572 366.800,263.674 362.832,261.572 359.556 C 260.839 358.414,260.174 357.678,260.093 357.920 C 259.706 359.083,264.132 363.727,267.053 365.223 C 268.637 366.035,268.808 366.222,268.064 366.330 C 267.571 366.401,266.567 366.106,265.833 365.673 C 265.099 365.240,263.975 364.770,263.334 364.630 C 262.694 364.489,261.828 363.918,261.410 363.362 C 260.992 362.805,260.316 361.964,259.908 361.494 C 257.261 358.442,256.387 353.908,256.034 341.400 L 255.740 331.000 255.684 340.000 M257.867 331.467 C 257.426 331.907,257.554 346.724,258.000 347.000 C 258.262 347.162,258.400 344.471,258.400 339.224 C 258.400 334.811,258.340 331.200,258.267 331.200 C 258.193 331.200,258.013 331.320,257.867 331.467 M129.271 345.042 C 129.620 345.391,130.215 345.615,130.594 345.538 C 131.068 345.443,130.870 345.245,129.959 344.904 C 128.751 344.451,128.691 344.463,129.271 345.042 M120.304 346.518 C 119.481 347.003,118.806 347.547,118.804 347.727 C 118.802 347.907,119.323 347.682,119.962 347.227 C 120.601 346.772,121.310 346.400,121.538 346.400 C 121.766 346.400,122.064 346.220,122.200 346.000 C 122.585 345.378,121.937 345.555,120.304 346.518 M132.800 346.367 C 133.763 347.152,134.400 347.408,134.400 347.010 C 134.400 346.906,133.815 346.535,133.100 346.186 L 131.800 345.552 132.800 346.367 M124.000 346.549 C 111.100 350.831,113.492 369.627,126.933 369.594 C 135.169 369.574,140.663 362.085,138.195 354.241 C 136.377 348.459,129.489 344.727,124.000 346.549 M134.800 347.279 C 134.800 347.617,137.676 350.458,137.846 350.287 C 137.923 350.211,137.269 349.448,136.393 348.593 C 135.517 347.737,134.800 347.146,134.800 347.279 M116.843 349.546 C 115.672 351.024,114.371 353.575,114.423 354.287 C 114.436 354.459,114.846 353.757,115.334 352.726 C 115.822 351.695,116.726 350.285,117.344 349.592 C 117.961 348.900,118.383 348.250,118.281 348.148 C 118.180 348.046,117.532 348.676,116.843 349.546 M66.000 349.900 C 66.000 350.069,66.360 350.432,66.800 350.707 C 67.240 350.982,67.600 351.069,67.600 350.900 C 67.600 350.731,67.240 350.368,66.800 350.093 C 66.360 349.818,66.000 349.731,66.000 349.900 M131.648 351.376 C 137.397 355.595,135.809 363.975,128.923 365.758 C 121.729 367.622,116.148 359.138,120.573 353.064 C 123.021 349.704,128.277 348.902,131.648 351.376 M138.000 350.850 C 138.000 351.198,139.237 353.600,139.417 353.600 C 139.504 353.600,139.461 353.285,139.321 352.900 C 139.033 352.106,138.000 350.503,138.000 350.850 M258.400 352.533 C 258.400 353.340,258.576 354.000,258.790 354.000 C 259.014 354.000,259.075 353.447,258.933 352.700 C 258.586 350.877,258.400 350.819,258.400 352.533 M125.400 352.293 C 120.286 353.573,119.713 360.834,124.541 363.172 C 126.631 364.183,127.337 364.193,129.440 363.238 C 135.994 360.261,132.406 350.539,125.400 352.293 M139.743 358.000 C 139.743 361.437,139.778 361.619,140.115 359.900 C 140.344 358.729,140.344 357.271,140.115 356.100 C 139.778 354.381,139.743 354.563,139.743 358.000 M114.137 357.800 C 114.139 359.560,114.209 360.230,114.293 359.289 C 114.378 358.349,114.377 356.909,114.291 356.089 C 114.205 355.270,114.136 356.040,114.137 357.800 M259.206 355.500 C 259.203 355.995,259.380 356.400,259.600 356.400 C 260.101 356.400,260.101 355.976,259.600 355.200 C 259.286 354.715,259.211 354.772,259.206 355.500 M114.616 362.450 C 115.427 365.009,118.301 368.327,120.800 369.590 C 122.707 370.554,124.161 370.984,123.858 370.495 C 123.725 370.279,123.118 370.003,122.508 369.881 C 120.116 369.402,115.238 364.618,115.210 362.724 C 115.204 362.352,115.001 361.924,114.757 361.774 C 114.452 361.585,114.408 361.796,114.616 362.450 M137.783 365.100 C 137.394 365.705,136.338 366.890,135.437 367.733 C 134.537 368.576,134.160 369.086,134.600 368.867 C 135.860 368.240,139.425 364.000,138.692 364.000 C 138.582 364.000,138.173 364.495,137.783 365.100 M280.400 366.000 C 280.061 366.470,279.365 366.800,278.712 366.800 C 278.100 366.800,277.600 366.980,277.600 367.200 C 277.600 367.420,277.330 367.600,277.000 367.600 C 276.670 367.600,276.400 367.780,276.400 368.000 C 276.400 368.220,275.680 368.400,274.800 368.400 C 271.496 368.400,273.064 369.326,277.200 369.816 C 278.410 369.960,279.888 370.420,280.484 370.839 C 281.713 371.702,282.000 371.770,282.000 371.200 C 282.000 370.980,281.812 370.800,281.583 370.800 C 281.354 370.800,280.780 370.440,280.308 370.000 C 279.836 369.560,278.988 369.196,278.425 369.191 C 277.603 369.184,277.836 368.964,279.600 368.084 C 280.810 367.480,282.196 366.726,282.681 366.408 C 283.495 365.875,283.640 365.922,284.580 367.016 C 285.141 367.667,285.599 368.053,285.600 367.874 C 285.603 365.820,281.576 364.368,280.400 366.000 M285.157 369.553 C 284.865 370.213,284.268 370.846,283.830 370.960 C 283.393 371.075,283.147 371.280,283.283 371.417 C 283.728 371.861,285.229 370.777,285.630 369.720 C 286.188 368.254,285.793 368.114,285.157 369.553 M132.400 369.583 C 132.070 369.767,131.350 370.112,130.800 370.349 C 129.847 370.758,129.856 370.767,131.000 370.530 C 131.660 370.393,132.555 370.037,132.989 369.740 C 133.842 369.156,133.383 369.033,132.400 369.583 M125.900 371.089 C 126.615 371.178,127.785 371.178,128.500 371.089 C 129.215 371.001,128.630 370.928,127.200 370.928 C 125.770 370.928,125.185 371.001,125.900 371.089 " stroke="none" fill="#34bca4" fill-rule="evenodd"></path><path id="path2" d="M129.600 136.000 C 127.927 137.673,128.769 139.036,136.331 146.904 C 139.260 149.951,140.012 150.960,139.760 151.504 C 138.474 154.275,139.252 164.979,141.058 169.362 C 148.342 187.043,179.388 187.526,191.012 170.140 C 195.011 164.160,203.419 162.992,207.177 167.894 C 211.574 173.630,212.877 175.076,215.165 176.763 C 222.422 182.110,232.411 184.217,241.000 182.212 C 245.422 181.179,246.187 180.933,248.912 179.671 C 257.174 175.844,261.105 168.143,260.712 156.557 L 260.520 150.891 263.560 147.715 C 271.429 139.492,272.665 137.488,270.869 135.862 C 269.033 134.201,267.928 134.857,262.632 140.746 L 258.321 145.540 256.060 143.229 C 244.748 131.668,215.717 135.612,207.593 149.813 L 206.341 152.000 200.027 152.000 L 193.714 152.000 192.258 149.642 C 187.018 141.151,177.913 136.799,165.400 136.802 C 154.914 136.804,148.679 138.611,144.155 142.958 L 141.944 145.082 139.672 142.648 C 131.953 134.377,131.513 134.087,129.600 136.000 M173.280 142.169 C 185.187 145.363,191.436 154.254,188.307 163.547 C 187.815 165.006,187.320 166.290,187.206 166.400 C 187.092 166.510,186.766 167.050,186.481 167.600 C 180.569 179.012,159.211 181.798,149.617 172.408 C 141.589 164.552,143.227 147.642,152.400 143.673 C 157.229 141.584,168.164 140.796,173.280 142.169 M242.154 142.026 C 250.910 144.294,253.799 147.205,255.228 155.202 C 257.082 165.574,251.228 174.949,241.411 177.331 C 238.860 177.950,229.239 178.124,227.400 177.584 C 207.116 171.629,205.154 148.918,224.400 142.864 C 225.830 142.415,227.270 141.960,227.600 141.855 C 228.797 141.472,240.549 141.611,242.154 142.026 M170.200 252.561 C 169.320 252.849,167.790 253.308,166.800 253.581 C 165.810 253.854,164.687 254.240,164.305 254.439 C 163.923 254.638,163.426 254.800,163.201 254.800 C 162.976 254.800,161.938 255.178,160.896 255.641 C 153.723 258.822,153.749 258.809,147.600 262.319 C 138.499 267.514,128.751 278.917,126.717 286.748 C 126.509 287.547,126.142 289.010,125.901 290.000 C 125.614 291.180,125.415 300.881,125.323 318.169 C 125.179 345.295,125.160 345.600,123.589 345.600 C 118.176 345.600,112.132 356.753,114.753 361.905 C 114.948 362.287,115.351 363.119,115.649 363.752 C 116.579 365.729,119.062 368.219,121.072 369.193 C 122.132 369.706,123.313 370.278,123.695 370.463 C 124.708 370.955,129.379 370.875,130.681 370.344 C 133.760 369.088,134.432 368.680,136.050 367.082 C 141.141 362.057,141.191 354.051,136.164 348.900 C 135.252 347.965,134.347 347.196,134.153 347.191 C 133.959 347.186,133.350 346.830,132.800 346.400 C 132.250 345.970,131.341 345.614,130.780 345.609 C 130.219 345.604,129.544 345.384,129.280 345.120 C 128.633 344.473,128.588 293.503,129.232 291.046 C 130.289 287.015,130.632 286.055,131.851 283.718 C 136.468 274.867,144.649 267.300,155.210 262.114 C 158.453 260.521,161.680 259.240,167.000 257.435 L 173.000 255.400 173.123 253.700 C 173.263 251.766,172.975 251.654,170.200 252.561 M226.950 253.250 C 227.088 253.938,227.200 254.737,227.200 255.028 C 227.200 255.353,229.006 256.111,231.900 257.002 C 234.485 257.798,237.140 258.693,237.800 258.992 C 238.460 259.290,239.810 259.855,240.800 260.246 C 242.626 260.968,245.297 262.324,248.200 264.001 C 249.080 264.509,250.160 265.125,250.600 265.370 C 251.638 265.946,253.743 267.322,254.000 267.592 C 254.110 267.707,255.191 268.555,256.403 269.475 C 260.818 272.828,265.516 278.364,267.879 283.000 C 270.670 288.475,271.284 291.652,271.125 299.800 L 271.000 306.200 269.800 306.331 C 269.140 306.403,268.429 306.628,268.220 306.831 C 268.011 307.034,267.533 307.200,267.158 307.200 C 264.874 307.200,258.888 312.319,257.335 315.600 C 255.234 320.036,255.173 321.130,255.921 340.800 C 256.422 353.986,257.286 358.471,259.908 361.494 C 260.316 361.964,260.992 362.805,261.410 363.362 C 261.828 363.918,262.694 364.489,263.334 364.630 C 263.975 364.770,265.099 365.240,265.833 365.673 C 266.567 366.106,267.571 366.401,268.064 366.330 C 268.808 366.222,268.637 366.035,267.053 365.223 C 263.754 363.533,260.000 359.378,260.000 357.416 C 260.000 356.857,259.820 356.400,259.600 356.400 C 259.380 356.400,259.200 355.860,259.200 355.200 C 259.200 354.540,259.020 354.000,258.800 354.000 C 258.565 354.000,258.400 352.608,258.400 350.624 C 258.400 348.767,258.220 347.136,258.000 347.000 C 257.756 346.849,257.600 343.804,257.600 339.200 C 257.600 334.596,257.756 331.551,258.000 331.400 C 258.220 331.264,258.400 329.663,258.400 327.843 C 258.400 316.368,263.671 309.884,273.000 309.884 C 281.701 309.884,286.525 315.065,287.177 325.108 C 287.522 330.430,287.957 331.521,289.534 331.021 C 291.646 330.351,291.087 320.746,288.639 315.654 C 286.453 311.107,280.855 307.030,275.800 306.306 C 275.044 306.197,274.986 305.787,274.746 298.795 C 274.606 294.728,274.303 290.680,274.072 289.800 C 273.842 288.920,273.489 287.570,273.288 286.800 C 271.650 280.524,265.368 272.066,258.060 266.298 C 255.129 263.986,245.455 258.000,244.648 258.000 C 244.507 258.000,243.538 257.619,242.496 257.153 C 237.855 255.081,236.066 254.395,233.200 253.590 C 232.210 253.312,230.629 252.841,229.686 252.542 C 227.017 251.698,226.658 251.791,226.950 253.250 M197.767 275.700 C 196.876 276.195,194.404 277.557,192.273 278.727 C 190.143 279.897,188.400 281.036,188.400 281.257 C 188.400 282.844,191.491 290.467,193.284 293.303 C 194.622 295.418,194.615 295.905,193.181 300.475 C 192.745 301.864,192.187 303.720,191.941 304.600 C 191.694 305.480,191.181 307.190,190.800 308.400 C 190.419 309.610,189.879 311.410,189.600 312.400 C 189.321 313.390,188.781 315.190,188.400 316.400 C 188.019 317.610,187.506 319.320,187.259 320.200 C 187.013 321.080,186.440 322.970,185.987 324.400 C 184.654 328.601,184.704 328.934,188.410 340.400 C 188.801 341.610,189.701 344.490,190.410 346.800 C 191.119 349.110,192.021 351.990,192.414 353.200 C 192.808 354.410,193.792 357.560,194.601 360.200 C 199.692 376.814,200.080 377.744,200.847 375.174 C 202.130 370.878,208.220 351.347,209.321 348.000 C 209.646 347.010,210.498 344.310,211.213 342.000 C 211.928 339.690,212.919 336.540,213.417 335.000 C 215.465 328.659,215.459 329.010,213.600 323.000 C 213.124 321.460,212.589 319.660,212.411 319.000 C 212.036 317.609,207.072 301.103,206.193 298.325 C 205.377 295.744,205.381 295.720,207.343 292.278 C 209.358 288.743,211.946 281.385,211.375 280.816 C 210.603 280.046,200.762 274.800,200.089 274.800 C 199.703 274.800,198.658 275.205,197.767 275.700 M129.640 346.434 C 135.953 348.448,139.231 353.024,138.669 359.039 C 137.566 370.854,121.956 373.652,116.513 363.009 C 112.216 354.608,120.899 343.645,129.640 346.434 M123.000 350.968 C 116.608 354.804,118.072 363.867,125.400 365.828 C 130.064 367.077,135.200 362.938,135.200 357.931 C 135.200 351.920,128.133 347.887,123.000 350.968 M129.360 352.558 C 133.992 354.493,134.041 361.148,129.440 363.238 C 127.337 364.193,126.631 364.183,124.541 363.172 C 117.713 359.866,122.359 349.632,129.360 352.558 M282.200 366.658 C 281.760 367.006,280.500 367.710,279.400 368.222 C 277.762 368.985,277.585 369.158,278.425 369.177 C 278.988 369.190,279.836 369.560,280.308 370.000 C 280.780 370.440,281.339 370.800,281.550 370.800 C 281.761 370.800,282.004 371.011,282.089 371.268 C 282.356 372.068,284.609 370.791,285.171 369.520 C 285.691 368.345,285.592 368.059,284.129 366.502 C 283.522 365.856,283.180 365.884,282.200 366.658 " stroke="none" fill="#5a2421" fill-rule="evenodd"></path><path id="path3" d="M235.607 88.326 C 228.393 98.030,217.609 108.013,210.400 111.658 C 204.643 114.569,205.008 114.530,181.600 114.704 L 160.600 114.861 152.400 121.669 C 142.609 129.799,143.718 128.033,142.989 136.659 C 142.324 144.539,142.166 144.988,140.682 143.224 C 140.115 142.551,139.515 142.000,139.347 142.000 C 139.180 142.000,139.654 142.630,140.400 143.400 C 142.090 145.143,141.855 145.178,144.303 142.819 C 148.654 138.625,155.037 136.804,165.400 136.802 C 177.913 136.799,187.018 141.151,192.258 149.642 L 193.714 152.000 200.027 152.000 L 206.341 152.000 207.593 149.813 C 215.660 135.713,244.535 131.682,255.919 143.067 C 257.589 144.737,258.044 145.031,257.867 144.323 C 257.740 143.815,257.444 141.024,257.209 138.121 C 256.975 135.217,256.616 131.167,256.411 129.121 C 256.206 127.074,255.844 123.420,255.606 121.000 C 255.036 115.203,254.871 114.689,252.183 110.327 C 250.920 108.277,248.673 104.620,247.190 102.200 C 236.268 84.380,237.470 85.819,235.607 88.326 M131.681 135.180 C 132.803 135.398,133.805 136.138,135.818 138.234 L 138.473 141.000 136.006 138.131 C 133.379 135.077,132.942 134.774,131.267 134.846 C 130.411 134.883,130.493 134.949,131.681 135.180 M265.183 137.500 C 263.755 138.985,262.050 140.835,261.394 141.612 C 260.737 142.388,261.911 141.239,264.003 139.057 C 267.654 135.248,267.864 135.097,269.275 135.261 C 270.083 135.356,270.656 135.290,270.548 135.116 C 269.821 133.939,267.702 134.880,265.183 137.500 M130.201 140.798 C 130.860 141.567,131.445 142.272,131.500 142.365 C 131.555 142.457,131.687 142.446,131.794 142.339 C 131.901 142.233,131.316 141.528,130.495 140.773 L 129.002 139.400 130.201 140.798 M156.200 142.362 C 148.303 144.682,145.090 148.849,144.507 157.525 C 143.868 167.047,149.559 175.212,158.267 177.268 C 161.106 177.938,170.668 178.150,172.600 177.586 C 178.381 175.898,184.440 171.538,186.481 167.600 C 186.766 167.050,187.092 166.510,187.206 166.400 C 189.949 163.754,189.496 155.118,186.378 150.600 C 181.152 143.028,167.043 139.176,156.200 142.362 M227.600 141.855 C 227.270 141.960,225.830 142.415,224.400 142.864 C 205.154 148.918,207.116 171.629,227.400 177.584 C 229.239 178.124,238.860 177.950,241.411 177.331 C 251.228 174.949,257.082 165.574,255.228 155.202 C 253.799 147.205,250.910 144.294,242.154 142.026 C 240.549 141.611,228.797 141.472,227.600 141.855 M268.796 141.833 C 268.791 142.211,267.299 143.891,262.961 148.400 L 260.460 151.000 260.804 154.200 L 261.147 157.400 261.028 154.213 L 260.909 151.026 262.511 149.413 C 264.000 147.915,264.096 147.874,263.864 148.843 C 263.726 149.416,263.422 151.936,263.188 154.443 C 262.954 156.949,262.602 160.710,262.407 162.801 C 262.211 164.892,261.935 166.905,261.792 167.276 C 261.412 168.267,260.404 167.685,260.373 166.457 C 260.351 165.564,260.265 165.648,259.821 167.000 C 257.554 173.906,251.655 179.518,244.800 181.289 C 240.114 182.500,238.108 182.773,233.797 182.786 C 226.356 182.808,221.034 181.087,215.165 176.763 C 212.877 175.076,211.574 173.630,207.177 167.894 C 203.419 162.992,195.011 164.160,191.012 170.140 C 179.391 187.521,148.840 187.088,141.031 169.432 C 140.464 168.150,139.979 166.718,139.953 166.250 C 139.918 165.634,139.836 165.722,139.653 166.567 C 138.941 169.855,138.164 167.968,137.593 161.564 C 136.761 152.231,136.380 148.692,136.172 148.355 C 136.051 148.160,136.108 148.000,136.298 148.000 C 136.849 148.000,139.103 150.523,139.336 151.400 C 139.513 152.069,139.536 152.051,139.474 151.288 C 139.405 150.433,132.994 142.900,132.276 142.831 C 132.098 142.814,132.064 142.980,132.200 143.200 C 132.349 143.440,131.828 143.600,130.895 143.600 C 122.365 143.600,118.949 152.862,121.750 168.400 C 122.127 170.490,122.608 173.190,122.819 174.400 C 125.025 187.046,129.648 193.598,135.686 192.633 L 137.205 192.390 138.247 194.695 C 146.169 212.235,154.750 223.713,167.038 233.208 C 170.648 235.997,171.122 236.512,171.508 238.064 C 172.592 242.423,172.961 246.286,172.960 253.287 L 172.958 260.775 185.979 267.277 C 193.141 270.853,199.225 274.054,199.500 274.390 C 199.948 274.936,200.052 274.935,200.500 274.375 C 200.775 274.032,206.862 270.834,214.026 267.268 L 227.052 260.785 227.044 253.692 C 227.036 246.980,227.508 242.073,228.552 238.034 C 228.955 236.471,229.421 235.951,232.604 233.517 C 244.946 224.077,255.122 210.564,261.701 194.878 L 262.759 192.356 264.169 192.621 C 270.569 193.821,274.674 187.805,277.572 172.975 C 281.374 153.520,278.746 143.600,269.789 143.600 C 268.337 143.600,268.077 143.283,268.873 142.487 C 269.134 142.226,269.224 141.890,269.073 141.740 C 268.923 141.590,268.798 141.632,268.796 141.833 M138.928 154.800 C 138.928 156.230,139.001 156.815,139.089 156.100 C 139.178 155.385,139.178 154.215,139.089 153.500 C 139.001 152.785,138.928 153.370,138.928 154.800 M138.838 162.000 C 138.824 163.210,138.960 164.433,139.140 164.717 C 139.324 165.006,139.396 164.211,139.304 162.917 C 139.079 159.758,138.868 159.342,138.838 162.000 M260.872 161.667 C 260.832 162.694,260.696 163.864,260.570 164.267 C 260.354 164.954,260.368 164.956,260.792 164.297 C 261.040 163.910,261.176 162.740,261.094 161.697 L 260.944 159.800 260.872 161.667 M140.175 272.900 L 139.000 274.200 140.300 273.025 C 141.512 271.930,141.784 271.600,141.475 271.600 C 141.406 271.600,140.821 272.185,140.175 272.900 M125.056 291.284 C 124.921 291.788,124.834 293.100,124.862 294.200 C 124.909 296.029,124.939 295.961,125.206 293.400 C 125.513 290.452,125.465 289.760,125.056 291.284 M274.928 294.000 C 274.928 295.430,275.001 296.015,275.089 295.300 C 275.178 294.585,275.178 293.415,275.089 292.700 C 275.001 291.985,274.928 292.570,274.928 294.000 M270.799 300.081 C 270.689 303.316,270.740 305.822,270.912 305.650 C 271.083 305.477,271.173 302.831,271.110 299.768 L 270.997 294.200 270.799 300.081 M128.897 319.686 C 128.800 344.349,128.801 344.372,129.634 344.818 C 130.093 345.064,130.557 345.177,130.664 345.069 C 130.772 344.961,130.488 344.755,130.033 344.611 C 129.210 344.349,129.206 344.221,129.100 319.674 L 128.994 295.000 128.897 319.686 M270.305 310.283 C 270.802 310.379,271.522 310.375,271.905 310.275 C 272.287 310.175,271.880 310.096,271.000 310.101 C 270.120 310.105,269.807 310.187,270.305 310.283 M274.305 310.283 C 274.802 310.379,275.522 310.375,275.905 310.275 C 276.287 310.175,275.880 310.096,275.000 310.101 C 274.120 310.105,273.807 310.187,274.305 310.283 M263.667 313.500 L 262.165 315.000 263.582 313.801 C 264.362 313.142,265.171 312.467,265.380 312.301 C 265.589 312.135,265.627 312.000,265.465 312.000 C 265.302 312.000,264.493 312.675,263.667 313.500 M290.893 323.200 C 290.893 323.970,290.975 324.285,291.076 323.900 C 291.176 323.515,291.176 322.885,291.076 322.500 C 290.975 322.115,290.893 322.430,290.893 323.200 M258.937 326.200 C 258.939 327.960,259.009 328.630,259.093 327.689 C 259.178 326.749,259.177 325.309,259.091 324.489 C 259.005 323.670,258.936 324.440,258.937 326.200 M184.536 328.223 C 184.308 328.816,185.025 331.615,186.987 337.800 C 187.476 339.340,188.282 341.950,188.779 343.600 C 189.276 345.250,189.844 346.913,190.041 347.295 C 190.238 347.677,190.400 348.264,190.400 348.600 C 190.400 348.936,190.562 349.523,190.761 349.905 C 190.960 350.287,191.337 351.410,191.600 352.400 C 191.863 353.390,192.240 354.513,192.439 354.895 C 192.638 355.277,192.800 355.941,192.800 356.371 C 192.800 356.801,192.980 357.264,193.200 357.400 C 193.420 357.536,193.600 358.166,193.600 358.800 C 193.600 359.434,193.780 360.064,194.000 360.200 C 194.220 360.336,194.400 360.799,194.400 361.229 C 194.400 361.659,194.562 362.323,194.761 362.705 C 194.960 363.087,195.340 364.210,195.607 365.200 C 195.873 366.190,196.230 367.360,196.400 367.800 C 196.570 368.240,197.325 370.580,198.078 373.000 C 200.021 379.251,200.168 379.161,202.965 370.000 C 204.801 363.988,206.487 358.622,206.800 357.800 C 206.968 357.360,207.508 355.650,208.000 354.000 C 208.492 352.350,209.033 350.640,209.202 350.200 C 209.371 349.760,209.727 348.590,209.993 347.600 C 210.260 346.610,210.640 345.487,210.839 345.105 C 211.038 344.723,211.200 344.136,211.200 343.800 C 211.200 343.464,211.362 342.877,211.561 342.495 C 211.760 342.113,212.137 340.990,212.400 340.000 C 212.663 339.010,213.040 337.887,213.239 337.505 C 213.438 337.123,213.600 336.536,213.600 336.200 C 213.600 335.864,213.763 335.277,213.963 334.895 C 214.554 333.765,215.600 329.983,215.600 328.978 C 215.600 327.546,215.004 327.510,214.972 328.940 C 214.947 330.052,213.971 333.471,211.585 340.800 C 211.191 342.010,210.392 344.530,209.808 346.400 C 209.224 348.270,207.392 354.120,205.735 359.400 C 203.037 367.997,201.740 372.184,200.847 375.174 C 200.080 377.744,199.692 376.814,194.601 360.200 C 193.792 357.560,192.808 354.410,192.414 353.200 C 192.021 351.990,191.119 349.110,190.410 346.800 C 189.701 344.490,188.801 341.610,188.410 340.400 C 186.040 333.067,185.144 329.925,185.113 328.834 C 185.075 327.468,184.897 327.281,184.536 328.223 M258.517 340.400 C 258.505 346.230,258.608 351.533,258.747 352.185 C 258.989 353.317,258.911 334.724,258.660 331.400 C 258.594 330.520,258.530 334.570,258.517 340.400 M255.371 339.200 C 255.371 344.150,255.428 346.175,255.499 343.700 C 255.569 341.225,255.569 337.175,255.499 334.700 C 255.428 332.225,255.371 334.250,255.371 339.200 M290.490 330.944 C 290.417 331.547,290.135 331.657,289.000 331.524 L 287.600 331.361 287.600 339.304 C 287.600 356.519,285.049 362.360,276.116 365.596 C 273.742 366.456,272.831 366.486,270.400 365.787 C 269.427 365.508,269.421 365.517,270.200 366.137 C 270.640 366.488,271.495 366.780,272.100 366.787 C 272.705 366.794,273.200 366.980,273.200 367.200 C 273.200 368.056,265.439 367.686,264.800 366.800 C 264.483 366.360,263.948 365.989,263.612 365.974 C 263.275 365.960,262.325 365.138,261.500 364.147 C 260.675 363.156,260.000 362.483,260.000 362.651 C 260.000 362.819,260.474 363.451,261.054 364.056 L 262.108 365.156 261.054 366.409 C 258.331 369.644,261.638 373.208,265.365 371.055 C 268.305 369.357,278.755 369.549,280.732 371.338 C 282.335 372.789,286.580 371.295,285.874 369.529 C 285.731 369.169,285.653 369.217,285.632 369.677 C 285.549 371.441,282.364 372.160,280.484 370.839 C 279.888 370.420,278.410 369.960,277.200 369.816 C 273.064 369.326,271.496 368.400,274.800 368.400 C 275.680 368.400,276.400 368.220,276.400 368.000 C 276.400 367.780,276.670 367.600,277.000 367.600 C 277.330 367.600,277.600 367.420,277.600 367.200 C 277.600 366.980,278.100 366.800,278.712 366.800 C 279.365 366.800,280.061 366.470,280.400 366.000 C 281.454 364.538,284.565 365.376,285.426 367.354 C 285.783 368.174,285.974 368.347,285.984 367.860 C 285.993 367.454,285.468 366.624,284.818 366.017 L 283.636 364.913 284.625 364.053 C 289.097 360.165,290.949 351.985,290.699 337.224 C 290.634 333.361,290.540 330.535,290.490 330.944 M119.424 346.613 C 118.996 346.936,118.827 347.200,119.047 347.200 C 119.267 347.200,119.796 346.936,120.224 346.613 C 120.651 346.290,120.820 346.025,120.600 346.025 C 120.380 346.025,119.851 346.290,119.424 346.613 M134.011 346.660 C 134.555 347.024,135.551 347.789,136.223 348.360 C 136.896 348.932,136.654 348.635,135.685 347.700 C 134.716 346.765,133.720 346.000,133.472 346.000 C 133.225 346.000,133.467 346.297,134.011 346.660 M117.351 348.500 C 116.917 348.995,116.391 349.678,116.181 350.019 C 115.971 350.359,116.124 350.269,116.519 349.819 C 116.915 349.368,117.610 348.685,118.064 348.300 C 118.517 347.915,118.720 347.600,118.514 347.600 C 118.308 347.600,117.785 348.005,117.351 348.500 M255.693 351.200 C 255.695 352.965,256.291 355.588,256.330 354.000 C 256.343 353.450,256.205 352.280,256.023 351.400 L 255.692 349.800 255.693 351.200 M140.193 358.000 C 140.193 361.009,140.234 361.204,140.553 359.700 C 140.767 358.691,140.767 357.309,140.553 356.300 C 140.234 354.796,140.193 354.991,140.193 358.000 M113.728 358.000 C 113.728 359.430,113.801 360.015,113.889 359.300 C 113.978 358.585,113.978 357.415,113.889 356.700 C 113.801 355.985,113.728 356.570,113.728 358.000 M257.629 359.110 C 257.876 359.820,258.242 360.503,258.442 360.626 C 258.642 360.750,258.591 360.344,258.327 359.725 C 257.621 358.065,257.106 357.612,257.629 359.110 M114.006 361.433 C 114.009 361.855,114.195 362.470,114.418 362.800 C 114.715 363.238,114.752 363.076,114.556 362.200 C 114.227 360.729,113.998 360.410,114.006 361.433 M263.371 361.897 C 264.015 362.609,264.630 363.104,264.738 362.996 C 264.845 362.888,264.858 362.755,264.767 362.700 C 264.675 362.645,264.060 362.151,263.400 361.601 L 262.200 360.603 263.371 361.897 M139.130 363.218 C 138.761 364.088,138.531 364.800,138.619 364.800 C 138.913 364.800,140.050 362.351,139.924 361.991 C 139.856 361.796,139.498 362.349,139.130 363.218 M114.800 363.848 C 114.800 364.058,115.344 364.853,116.010 365.615 L 117.219 367.000 116.187 365.410 C 114.964 363.529,114.800 363.344,114.800 363.848 M136.175 367.700 L 135.000 369.000 136.300 367.825 C 137.512 366.730,137.784 366.400,137.475 366.400 C 137.406 366.400,136.821 366.985,136.175 367.700 M133.500 369.429 C 132.005 370.240,132.096 370.578,133.600 369.800 C 134.260 369.459,134.800 369.094,134.800 368.990 C 134.800 368.732,134.757 368.747,133.500 369.429 M122.800 370.782 C 123.130 371.005,123.745 371.191,124.167 371.194 C 125.190 371.202,124.871 370.973,123.400 370.644 C 122.524 370.448,122.362 370.485,122.800 370.782 " stroke="none" fill="#f0b182" fill-rule="evenodd"></path><path id="path4" d="M188.600 47.983 C 187.720 48.131,189.610 48.181,192.800 48.093 C 195.990 48.005,198.780 47.873,199.000 47.798 C 199.754 47.544,190.202 47.713,188.600 47.983 M200.833 47.746 C 200.925 47.826,203.790 47.976,207.200 48.079 C 210.632 48.183,212.507 48.133,211.400 47.968 C 209.367 47.665,200.529 47.479,200.833 47.746 M181.600 48.820 C 180.926 49.049,181.251 49.084,182.600 48.928 C 183.700 48.801,184.675 48.631,184.767 48.549 C 185.082 48.268,182.599 48.480,181.600 48.820 M216.600 48.800 C 217.260 48.968,218.160 49.114,218.600 49.125 L 219.400 49.144 218.600 48.800 C 218.160 48.611,217.260 48.465,216.600 48.475 L 215.400 48.495 216.600 48.800 M177.000 49.600 L 176.200 49.944 177.000 49.932 C 177.440 49.926,178.250 49.776,178.800 49.600 L 179.800 49.280 178.800 49.268 C 178.250 49.262,177.440 49.411,177.000 49.600 M221.200 49.600 C 221.750 49.776,222.560 49.926,223.000 49.932 L 223.800 49.944 223.000 49.600 C 222.560 49.411,221.750 49.262,221.200 49.268 L 220.200 49.280 221.200 49.600 M173.600 50.400 C 173.067 50.745,173.067 50.788,173.600 50.788 C 173.930 50.788,174.470 50.613,174.800 50.400 C 175.333 50.055,175.333 50.012,174.800 50.012 C 174.470 50.012,173.930 50.187,173.600 50.400 M225.200 50.400 C 225.530 50.613,226.070 50.788,226.400 50.788 C 226.933 50.788,226.933 50.745,226.400 50.400 C 226.070 50.187,225.530 50.012,225.200 50.012 C 224.667 50.012,224.667 50.055,225.200 50.400 M170.800 51.200 C 170.267 51.545,170.267 51.588,170.800 51.588 C 171.130 51.588,171.670 51.413,172.000 51.200 C 172.533 50.855,172.533 50.812,172.000 50.812 C 171.670 50.812,171.130 50.987,170.800 51.200 M161.900 54.629 C 160.405 55.440,160.496 55.778,162.000 55.000 C 162.660 54.659,163.200 54.294,163.200 54.190 C 163.200 53.932,163.157 53.947,161.900 54.629 M239.200 55.564 C 239.750 56.014,240.380 56.383,240.600 56.385 C 241.028 56.388,240.305 55.834,239.000 55.160 C 238.469 54.885,238.536 55.021,239.200 55.564 M157.589 57.062 C 153.271 59.951,149.821 62.933,147.482 65.800 C 146.394 67.133,146.909 66.728,149.025 64.585 C 151.797 61.778,154.446 59.578,158.014 57.121 C 158.556 56.748,158.905 56.433,158.789 56.421 C 158.673 56.409,158.133 56.698,157.589 57.062 M241.200 56.521 C 241.200 56.612,242.235 57.351,243.500 58.163 C 244.765 58.975,245.308 59.221,244.706 58.710 C 243.518 57.700,241.200 56.253,241.200 56.521 M247.474 61.155 C 248.838 62.143,251.115 64.516,254.807 68.800 C 255.609 69.730,255.605 69.701,254.759 68.400 C 253.539 66.524,247.042 60.000,246.394 60.000 C 246.111 60.000,246.597 60.520,247.474 61.155 M145.144 68.700 C 143.993 70.089,143.506 70.800,143.704 70.800 C 143.814 70.800,144.386 70.170,144.973 69.400 C 146.063 67.971,146.195 67.432,145.144 68.700 M259.040 75.602 C 259.639 76.703,260.193 77.540,260.271 77.463 C 260.443 77.290,258.408 73.600,258.141 73.600 C 258.036 73.600,258.440 74.501,259.040 75.602 M135.429 87.429 C 135.281 88.015,135.238 88.572,135.332 88.666 C 135.427 88.760,135.624 88.358,135.771 87.771 C 135.919 87.185,135.962 86.628,135.868 86.534 C 135.773 86.440,135.576 86.842,135.429 87.429 M265.612 92.400 C 265.612 92.730,265.787 93.270,266.000 93.600 C 266.345 94.133,266.388 94.133,266.388 93.600 C 266.388 93.270,266.213 92.730,266.000 92.400 C 265.655 91.867,265.612 91.867,265.612 92.400 M266.468 95.000 C 266.462 95.440,266.611 96.160,266.800 96.600 C 267.238 97.619,267.238 96.568,266.800 95.200 C 266.543 94.396,266.477 94.357,266.468 95.000 M133.000 96.000 C 132.848 96.691,132.807 97.341,132.909 97.442 C 133.011 97.544,133.209 97.053,133.350 96.350 C 133.683 94.683,133.360 94.360,133.000 96.000 M267.256 99.000 C 267.256 99.440,267.411 100.160,267.600 100.600 L 267.944 101.400 267.944 100.600 C 267.944 100.160,267.789 99.440,267.600 99.000 L 267.256 98.200 267.256 99.000 M132.200 100.000 C 132.048 100.691,132.007 101.341,132.109 101.442 C 132.211 101.544,132.409 101.053,132.550 100.350 C 132.883 98.683,132.560 98.360,132.200 100.000 M268.068 102.600 C 268.062 103.040,268.211 103.760,268.400 104.200 C 268.838 105.219,268.838 104.168,268.400 102.800 C 268.143 101.996,268.077 101.957,268.068 102.600 M131.400 103.600 C 131.248 104.291,131.207 104.941,131.309 105.042 C 131.411 105.144,131.609 104.653,131.750 103.950 C 132.083 102.283,131.760 101.960,131.400 103.600 M130.585 109.385 C 130.430 110.623,130.390 111.723,130.495 111.829 C 130.601 111.934,130.807 111.001,130.954 109.754 C 131.100 108.507,131.141 107.407,131.043 107.310 C 130.946 107.212,130.739 108.146,130.585 109.385 M268.887 108.000 C 268.891 108.550,269.032 109.540,269.200 110.200 L 269.505 111.400 269.513 110.200 C 269.517 109.540,269.376 108.550,269.200 108.000 L 268.880 107.000 268.887 108.000 M129.859 114.688 C 129.721 115.519,129.631 117.010,129.658 118.000 C 129.692 119.284,129.802 118.888,130.041 116.621 C 130.393 113.278,130.284 112.116,129.859 114.688 M269.881 115.200 C 270.006 116.410,270.174 117.475,270.254 117.567 C 270.535 117.887,270.317 114.991,269.987 114.000 C 269.771 113.354,269.734 113.780,269.881 115.200 M270.493 122.800 C 270.493 123.570,270.575 123.885,270.676 123.500 C 270.776 123.115,270.776 122.485,270.676 122.100 C 270.575 121.715,270.493 122.030,270.493 122.800 M270.948 129.200 C 270.948 131.510,271.014 132.455,271.095 131.300 C 271.176 130.145,271.176 128.255,271.095 127.100 C 271.014 125.945,270.948 126.890,270.948 129.200 M128.954 130.800 C 128.954 133.550,129.018 134.675,129.096 133.300 C 129.174 131.925,129.174 129.675,129.096 128.300 C 129.018 126.925,128.954 128.050,128.954 130.800 M169.821 258.297 C 168.259 258.418,167.528 258.734,166.356 259.792 C 164.137 261.797,164.986 261.447,152.702 265.419 C 150.118 266.254,148.078 267.011,148.168 267.101 C 148.258 267.192,151.708 266.165,155.834 264.821 C 159.960 263.476,163.453 262.516,163.596 262.688 C 163.739 262.860,164.275 264.350,164.787 266.000 C 165.299 267.650,166.208 270.530,166.807 272.400 C 167.406 274.270,168.301 277.150,168.796 278.800 C 169.291 280.450,170.406 283.960,171.274 286.600 C 172.943 291.680,178.785 310.148,180.003 314.200 C 181.060 317.714,182.005 320.706,182.852 323.227 C 183.263 324.451,183.600 325.734,183.600 326.078 C 183.600 326.421,183.838 326.899,184.128 327.140 C 184.552 327.492,185.001 326.412,186.394 321.689 C 187.350 318.450,188.465 314.720,188.872 313.400 C 189.279 312.080,189.813 310.280,190.059 309.400 C 190.306 308.520,190.819 306.810,191.200 305.600 C 191.581 304.390,192.114 302.590,192.385 301.600 C 192.656 300.610,193.040 299.487,193.239 299.105 C 193.438 298.723,193.600 297.994,193.600 297.485 C 193.600 296.976,193.780 296.380,194.001 296.159 C 194.268 295.892,193.988 295.108,193.158 293.799 C 191.126 290.594,188.000 282.894,188.000 281.092 C 188.000 280.781,188.855 280.095,189.900 279.568 C 190.945 279.042,191.890 278.518,192.000 278.405 C 192.230 278.169,195.017 276.663,197.490 275.437 C 200.013 274.188,200.167 274.297,185.884 267.197 C 172.773 260.681,172.598 260.578,172.475 259.297 C 172.406 258.584,172.226 258.032,172.075 258.072 C 171.924 258.112,170.909 258.213,169.821 258.297 M227.523 259.331 C 227.402 260.574,227.131 260.734,214.110 267.200 C 200.877 273.771,200.168 274.192,201.500 274.683 C 201.885 274.825,202.290 275.045,202.400 275.171 C 202.510 275.297,203.590 275.917,204.800 276.549 C 211.450 280.023,212.000 280.415,212.000 281.673 C 212.000 282.267,211.820 282.864,211.600 283.000 C 211.380 283.136,211.200 283.676,211.200 284.200 C 211.200 284.724,211.020 285.264,210.800 285.400 C 210.580 285.536,210.400 285.999,210.400 286.429 C 210.400 286.859,210.241 287.523,210.047 287.905 C 209.852 288.287,209.451 289.140,209.156 289.800 C 208.860 290.460,208.168 291.720,207.617 292.600 C 205.581 295.855,205.600 295.702,206.814 299.000 C 206.976 299.440,207.334 300.610,207.608 301.600 C 208.521 304.889,208.908 306.192,209.210 307.000 C 209.374 307.440,209.733 308.610,210.008 309.600 C 210.283 310.590,210.821 312.390,211.205 313.600 C 211.588 314.810,212.297 317.150,212.778 318.800 C 213.260 320.450,213.805 322.250,213.989 322.800 C 214.173 323.350,214.544 324.655,214.814 325.700 C 215.596 328.731,215.692 328.553,218.861 318.200 C 219.332 316.660,220.214 313.870,220.820 312.000 C 221.427 310.130,222.585 306.440,223.394 303.800 C 225.206 297.882,227.318 291.321,228.349 288.400 C 228.776 287.190,229.485 285.030,229.924 283.600 C 232.180 276.244,233.804 271.046,234.845 267.847 C 235.480 265.893,236.000 264.070,236.000 263.796 C 236.000 262.447,237.061 262.404,240.624 263.608 C 242.577 264.268,244.354 264.749,244.574 264.675 C 244.793 264.602,242.923 263.883,240.418 263.076 C 236.979 261.969,235.415 261.232,234.032 260.069 C 232.522 258.799,231.800 258.487,229.923 258.295 L 227.646 258.063 227.523 259.331 M132.200 272.000 C 131.100 272.406,130.436 272.752,130.725 272.769 C 131.334 272.805,135.200 271.583,135.200 271.354 C 135.200 271.051,134.169 271.273,132.200 272.000 M265.200 271.600 C 265.530 271.813,266.160 271.978,266.600 271.966 L 267.400 271.944 266.600 271.600 C 265.404 271.086,264.405 271.086,265.200 271.600 M267.800 272.400 C 267.936 272.620,268.442 272.787,268.924 272.772 C 269.769 272.745,269.771 272.731,269.000 272.400 C 267.899 271.927,267.508 271.927,267.800 272.400 M270.003 272.936 C 270.332 273.265,281.120 276.803,281.683 276.767 C 281.967 276.748,279.860 275.950,277.000 274.992 C 271.450 273.133,269.680 272.613,270.003 272.936 M125.400 274.184 C 124.520 274.484,121.280 275.541,118.200 276.533 C 115.120 277.525,111.970 278.630,111.200 278.990 C 109.500 279.784,110.614 279.545,113.600 278.474 C 117.677 277.013,126.001 274.400,126.579 274.400 C 126.895 274.400,127.264 274.220,127.400 274.000 C 127.719 273.484,127.356 273.517,125.400 274.184 M282.400 276.963 C 282.400 277.052,283.435 277.444,284.700 277.832 C 285.965 278.221,287.355 278.778,287.789 279.070 C 288.223 279.361,288.853 279.593,289.189 279.584 C 290.112 279.560,287.878 278.456,285.129 277.577 C 282.512 276.741,282.400 276.716,282.400 276.963 M107.600 280.000 C 106.805 280.514,107.804 280.514,109.000 280.000 L 109.800 279.656 109.000 279.634 C 108.560 279.622,107.930 279.787,107.600 280.000 M290.033 279.744 C 290.125 279.823,290.740 280.008,291.400 280.156 C 292.276 280.352,292.438 280.315,292.000 280.018 C 291.460 279.653,289.632 279.398,290.033 279.744 M293.600 280.800 C 293.930 281.013,294.470 281.188,294.800 281.188 C 295.333 281.188,295.333 281.145,294.800 280.800 C 294.470 280.587,293.930 280.412,293.600 280.412 C 293.067 280.412,293.067 280.455,293.600 280.800 M102.400 281.600 C 101.867 281.945,101.867 281.988,102.400 281.988 C 102.730 281.988,103.270 281.813,103.600 281.600 C 104.133 281.255,104.133 281.212,103.600 281.212 C 103.270 281.212,102.730 281.387,102.400 281.600 M100.000 282.400 C 99.467 282.745,99.467 282.788,100.000 282.788 C 100.330 282.788,100.870 282.613,101.200 282.400 C 101.733 282.055,101.733 282.012,101.200 282.012 C 100.870 282.012,100.330 282.187,100.000 282.400 M88.400 286.800 C 87.630 287.222,87.113 287.574,87.251 287.583 C 87.665 287.611,90.400 286.405,90.400 286.195 C 90.400 285.846,89.825 286.020,88.400 286.800 M314.000 288.400 C 314.770 288.822,315.580 289.166,315.800 289.166 C 316.020 289.166,315.570 288.822,314.800 288.400 C 314.030 287.978,313.220 287.634,313.000 287.634 C 312.780 287.634,313.230 287.978,314.000 288.400 M81.994 289.984 C 81.227 290.416,79.655 291.263,78.500 291.868 C 77.345 292.472,76.400 293.132,76.400 293.333 C 76.400 293.537,76.620 293.524,76.900 293.303 C 77.413 292.897,80.536 291.114,82.500 290.106 C 83.105 289.796,83.600 289.465,83.600 289.371 C 83.600 289.103,83.476 289.150,81.994 289.984 M318.800 290.764 C 319.350 291.214,319.980 291.583,320.200 291.585 C 320.628 291.588,319.905 291.034,318.600 290.360 C 318.069 290.085,318.136 290.221,318.800 290.764 M73.559 295.132 C 69.066 298.714,67.760 299.953,65.939 302.358 C 64.873 303.767,64.000 305.103,64.000 305.328 C 64.000 305.553,64.583 304.851,65.296 303.769 C 66.880 301.362,70.610 297.697,73.700 295.511 C 74.965 294.616,76.000 293.820,76.000 293.742 C 76.000 293.360,75.235 293.796,73.559 295.132 M326.000 295.175 C 328.925 297.616,330.156 298.506,329.400 297.632 C 328.960 297.123,327.790 296.174,326.800 295.524 C 325.810 294.873,325.450 294.716,326.000 295.175 M331.200 299.326 C 331.200 299.421,331.947 300.287,332.860 301.249 L 334.520 303.000 333.231 301.306 C 332.031 299.728,331.200 298.918,331.200 299.326 M335.541 305.177 C 336.118 306.258,336.650 307.084,336.723 307.011 C 336.914 306.820,335.281 303.697,334.852 303.432 C 334.654 303.310,334.964 304.095,335.541 305.177 M61.849 310.615 C 61.712 310.973,61.618 311.656,61.641 312.133 C 61.667 312.681,61.803 312.486,62.010 311.603 C 62.360 310.116,62.265 309.533,61.849 310.615 M337.844 311.000 C 338.173 312.471,338.402 312.790,338.394 311.767 C 338.391 311.345,338.205 310.730,337.982 310.400 C 337.685 309.962,337.648 310.124,337.844 311.000 M338.434 313.200 C 338.446 313.530,338.611 314.160,338.800 314.600 L 339.144 315.400 339.166 314.600 C 339.178 314.160,339.013 313.530,338.800 313.200 C 338.455 312.667,338.415 312.667,338.434 313.200 M61.049 313.815 C 60.912 314.173,60.815 314.766,60.834 315.133 C 60.853 315.500,61.027 315.269,61.221 314.620 C 61.598 313.358,61.465 312.733,61.049 313.815 M60.256 316.884 C 60.121 317.388,60.027 318.160,60.046 318.600 C 60.065 319.040,60.245 318.698,60.446 317.840 C 60.836 316.178,60.670 315.340,60.256 316.884 M339.246 316.400 C 339.265 316.730,339.424 317.450,339.600 318.000 L 339.920 319.000 339.954 318.000 C 339.973 317.450,339.813 316.730,339.600 316.400 C 339.255 315.867,339.216 315.867,339.246 316.400 M340.046 319.600 C 340.065 319.930,340.224 320.650,340.400 321.200 L 340.720 322.200 340.754 321.200 C 340.773 320.650,340.613 319.930,340.400 319.600 C 340.055 319.067,340.016 319.067,340.046 319.600 M59.449 320.215 C 59.312 320.573,59.218 321.256,59.241 321.733 C 59.267 322.281,59.403 322.086,59.610 321.203 C 59.960 319.716,59.865 319.133,59.449 320.215 M341.073 324.000 C 341.204 324.990,341.376 325.875,341.456 325.967 C 341.757 326.314,341.528 323.764,341.190 323.000 C 340.953 322.466,340.914 322.798,341.073 324.000 M58.656 323.684 C 58.521 324.188,58.428 325.050,58.449 325.600 C 58.472 326.189,58.631 325.871,58.836 324.825 C 59.203 322.952,59.073 322.127,58.656 323.684 M342.211 329.400 C 342.312 330.280,342.570 331.720,342.784 332.600 L 343.174 334.200 342.989 332.600 C 342.888 331.720,342.630 330.280,342.416 329.400 L 342.026 327.800 342.211 329.400 M57.433 330.000 C 57.026 332.438,56.771 334.690,56.958 334.200 C 57.410 333.011,58.076 329.229,57.917 328.753 C 57.816 328.449,57.598 329.010,57.433 330.000 M56.000 337.333 C 56.000 337.920,55.820 338.400,55.600 338.400 C 55.380 338.400,55.200 338.670,55.200 339.000 C 55.200 339.330,55.372 339.600,55.582 339.600 C 56.027 339.600,56.614 336.881,56.248 336.515 C 56.112 336.378,56.000 336.747,56.000 337.333 M58.400 341.829 C 58.400 341.954,58.670 342.327,59.000 342.657 C 59.651 343.308,59.733 343.211,59.357 342.233 C 59.129 341.638,58.400 341.330,58.400 341.829 M62.800 346.647 C 62.800 346.992,65.231 349.142,66.200 349.653 C 66.640 349.885,66.146 349.248,65.101 348.238 C 63.256 346.451,62.800 346.136,62.800 346.647 M335.261 347.855 C 334.525 348.625,333.986 349.320,334.065 349.398 C 334.241 349.575,337.200 346.971,337.200 346.639 C 337.200 346.108,336.531 346.527,335.261 347.855 M70.800 354.000 C 70.800 354.220,71.081 354.400,71.424 354.400 C 71.767 354.400,71.936 354.580,71.800 354.800 C 71.664 355.020,71.833 355.200,72.176 355.200 C 72.961 355.200,72.960 355.017,72.171 354.229 C 71.458 353.515,70.800 353.406,70.800 354.000 M327.992 354.210 C 327.301 355.043,327.811 355.447,328.581 354.676 C 328.921 354.336,329.200 353.954,329.200 353.829 C 329.200 353.384,328.491 353.608,327.992 354.210 M74.267 356.267 C 74.057 356.477,76.236 358.800,76.642 358.800 C 76.987 358.800,76.751 358.432,75.653 357.256 C 75.022 356.581,74.398 356.135,74.267 356.267 M324.700 356.887 C 323.627 358.229,323.869 358.733,325.000 357.513 C 325.550 356.920,326.000 356.337,326.000 356.217 C 326.000 355.732,325.359 356.062,324.700 356.887 M80.800 361.453 C 80.800 361.810,82.931 363.602,83.125 363.408 C 83.302 363.231,81.364 361.200,81.018 361.200 C 80.898 361.200,80.800 361.314,80.800 361.453 M317.660 362.251 C 317.143 362.802,316.790 363.324,316.877 363.410 C 317.069 363.603,319.200 361.808,319.200 361.453 C 319.200 360.949,318.581 361.269,317.660 362.251 M88.800 367.029 C 88.800 367.451,89.902 368.364,90.133 368.133 C 90.259 368.008,90.113 367.656,89.810 367.352 C 89.233 366.776,88.800 366.637,88.800 367.029 M91.200 368.704 C 91.200 368.871,91.560 369.232,92.000 369.507 C 92.930 370.088,93.054 369.797,92.229 368.971 C 91.598 368.341,91.200 368.237,91.200 368.704 M307.687 369.209 C 307.219 369.959,307.241 369.981,307.991 369.513 C 308.436 369.235,308.800 368.871,308.800 368.704 C 308.800 368.126,308.191 368.403,307.687 369.209 M94.803 371.100 C 94.805 371.265,95.255 371.608,95.803 371.862 C 96.968 372.403,97.167 371.825,96.026 371.214 C 95.108 370.723,94.799 370.694,94.803 371.100 M100.400 374.600 C 100.950 374.914,101.580 375.172,101.800 375.172 C 102.020 375.172,101.750 374.914,101.200 374.600 C 100.650 374.286,100.020 374.028,99.800 374.028 C 99.580 374.028,99.850 374.286,100.400 374.600 M122.000 385.200 C 122.000 385.420,122.270 385.600,122.600 385.600 C 122.930 385.600,123.200 385.420,123.200 385.200 C 123.200 384.980,122.930 384.800,122.600 384.800 C 122.270 384.800,122.000 384.980,122.000 385.200 M129.800 388.400 C 129.936 388.620,130.307 388.800,130.624 388.800 C 130.941 388.800,131.200 388.620,131.200 388.400 C 131.200 388.180,130.829 388.000,130.376 388.000 C 129.923 388.000,129.664 388.180,129.800 388.400 M268.800 388.400 C 268.800 388.620,269.059 388.800,269.376 388.800 C 269.693 388.800,270.064 388.620,270.200 388.400 C 270.336 388.180,270.077 388.000,269.624 388.000 C 269.171 388.000,268.800 388.180,268.800 388.400 M134.600 390.000 C 134.736 390.220,135.117 390.400,135.447 390.400 C 135.777 390.400,135.936 390.220,135.800 390.000 C 135.664 389.780,135.283 389.600,134.953 389.600 C 134.623 389.600,134.464 389.780,134.600 390.000 M137.000 390.800 C 138.101 391.273,138.492 391.273,138.200 390.800 C 138.064 390.580,137.558 390.413,137.076 390.428 C 136.231 390.455,136.229 390.469,137.000 390.800 M259.600 391.200 C 259.600 391.420,260.005 391.597,260.500 391.594 C 261.228 391.589,261.285 391.514,260.800 391.200 C 260.024 390.699,259.600 390.699,259.600 391.200 M142.000 392.000 C 142.000 392.220,142.270 392.400,142.600 392.400 C 142.930 392.400,143.200 392.220,143.200 392.000 C 143.200 391.780,142.930 391.600,142.600 391.600 C 142.270 391.600,142.000 391.780,142.000 392.000 M256.800 392.000 C 256.800 392.220,257.070 392.400,257.400 392.400 C 257.730 392.400,258.000 392.220,258.000 392.000 C 258.000 391.780,257.730 391.600,257.400 391.600 C 257.070 391.600,256.800 391.780,256.800 392.000 M144.000 392.800 C 144.000 393.020,144.360 393.200,144.800 393.200 C 145.240 393.200,145.600 393.020,145.600 392.800 C 145.600 392.580,145.240 392.400,144.800 392.400 C 144.360 392.400,144.000 392.580,144.000 392.800 M254.400 392.800 C 254.400 393.020,254.771 393.200,255.224 393.200 C 255.677 393.200,255.936 393.020,255.800 392.800 C 255.664 392.580,255.293 392.400,254.976 392.400 C 254.659 392.400,254.400 392.580,254.400 392.800 M146.651 393.683 C 146.925 394.127,148.000 394.080,148.000 393.625 C 148.000 393.419,147.652 393.276,147.228 393.308 C 146.803 393.340,146.544 393.509,146.651 393.683 M252.000 393.625 C 252.000 394.080,253.075 394.127,253.349 393.683 C 253.456 393.509,253.197 393.340,252.772 393.308 C 252.348 393.276,252.000 393.419,252.000 393.625 M149.852 394.315 C 149.745 394.488,150.095 394.666,150.629 394.711 C 151.163 394.755,151.600 394.613,151.600 394.396 C 151.600 393.927,150.134 393.860,149.852 394.315 M248.400 394.400 C 248.400 394.620,248.760 394.800,249.200 394.800 C 249.640 394.800,250.000 394.620,250.000 394.400 C 250.000 394.180,249.640 394.000,249.200 394.000 C 248.760 394.000,248.400 394.180,248.400 394.400 M153.600 395.200 C 153.600 395.420,153.971 395.600,154.424 395.600 C 154.877 395.600,155.136 395.420,155.000 395.200 C 154.864 394.980,154.493 394.800,154.176 394.800 C 153.859 394.800,153.600 394.980,153.600 395.200 M245.200 395.196 C 245.200 395.413,245.637 395.555,246.171 395.511 C 246.705 395.466,247.055 395.288,246.948 395.115 C 246.666 394.660,245.200 394.727,245.200 395.196 M156.800 396.000 C 156.800 396.220,157.171 396.400,157.624 396.400 C 158.077 396.400,158.336 396.220,158.200 396.000 C 158.064 395.780,157.693 395.600,157.376 395.600 C 157.059 395.600,156.800 395.780,156.800 396.000 M241.800 396.000 C 241.664 396.220,241.923 396.400,242.376 396.400 C 242.829 396.400,243.200 396.220,243.200 396.000 C 243.200 395.780,242.941 395.600,242.624 395.600 C 242.307 395.600,241.936 395.780,241.800 396.000 M160.800 396.800 C 160.800 397.020,161.160 397.200,161.600 397.200 C 162.040 397.200,162.400 397.020,162.400 396.800 C 162.400 396.580,162.040 396.400,161.600 396.400 C 161.160 396.400,160.800 396.580,160.800 396.800 M237.600 396.800 C 237.600 397.020,237.960 397.200,238.400 397.200 C 238.840 397.200,239.200 397.020,239.200 396.800 C 239.200 396.580,238.840 396.400,238.400 396.400 C 237.960 396.400,237.600 396.580,237.600 396.800 M164.600 397.600 C 164.736 397.820,165.197 398.000,165.624 398.000 C 166.051 398.000,166.400 397.820,166.400 397.600 C 166.400 397.380,165.939 397.200,165.376 397.200 C 164.796 397.200,164.460 397.373,164.600 397.600 M233.600 397.600 C 233.600 397.820,233.949 398.000,234.376 398.000 C 234.803 398.000,235.264 397.820,235.400 397.600 C 235.540 397.373,235.204 397.200,234.624 397.200 C 234.061 397.200,233.600 397.380,233.600 397.600 M169.400 398.400 C 169.256 398.633,169.663 398.800,170.376 398.800 C 171.049 398.800,171.600 398.620,171.600 398.400 C 171.600 398.180,171.161 398.000,170.624 398.000 C 170.087 398.000,169.536 398.180,169.400 398.400 M228.600 398.400 C 228.736 398.620,229.287 398.800,229.824 398.800 C 230.361 398.800,230.800 398.620,230.800 398.400 C 230.800 398.180,230.249 398.000,229.576 398.000 C 228.863 398.000,228.456 398.167,228.600 398.400 M175.051 399.117 C 174.944 399.291,175.383 399.474,176.028 399.523 C 176.672 399.573,177.200 399.430,177.200 399.206 C 177.200 398.730,175.338 398.652,175.051 399.117 M222.800 399.206 C 222.800 399.430,223.328 399.573,223.972 399.523 C 224.617 399.474,225.056 399.291,224.949 399.117 C 224.662 398.652,222.800 398.730,222.800 399.206 M183.705 399.887 C 184.314 399.979,185.214 399.977,185.705 399.882 C 186.197 399.787,185.700 399.711,184.600 399.714 C 183.500 399.717,183.097 399.795,183.705 399.887 M214.505 399.887 C 215.114 399.979,216.014 399.977,216.505 399.882 C 216.997 399.787,216.500 399.711,215.400 399.714 C 214.300 399.717,213.897 399.795,214.505 399.887 " stroke="none" fill="#63d3f3" fill-rule="evenodd"></path></g></svg>